<?xml version="1.0" encoding="utf-8"?>
<!-- Generator: Adobe Illustrator 22.1.0, SVG Export Plug-In . SVG Version: 6.00 Build 0)  -->
<svg version="1.1" id="Mascot" xmlns="http://www.w3.org/2000/svg" xmlns:xlink="http://www.w3.org/1999/xlink" x="0px" y="0px" viewBox="0 0 283 303" enable-background="new 0 0 283 303" xml:space="preserve">
	<metadata>
		<?xpacket begin="﻿" id="W5M0MpCehiHzreSzNTczkc9d"?>
		<x:xmpmeta xmlns:x="adobe:ns:meta/" x:xmptk="Adobe XMP Core 5.6-c143 79.161356, 2017/09/07-01:11:22">
			<rdf:RDF xmlns:rdf="http://www.w3.org/1999/02/22-rdf-syntax-ns#">
				<rdf:Description rdf:about="" xmlns:dc="http://purl.org/dc/elements/1.1/" xmlns:xmpRights="http://ns.adobe.com/xap/1.0/rights/" xmlns:photoshop="http://ns.adobe.com/photoshop/1.0/" xmlns:Iptc4xmpCore="http://iptc.org/std/Iptc4xmpCore/1.0/xmlns/" xmlns:Iptc4xmpExt="http://iptc.org/std/Iptc4xmpExt/2008-02-29/" xmlns:plus="http://ns.useplus.org/ldf/xmp/1.0/" xmlns:xmp="http://ns.adobe.com/xap/1.0/" xmlns:xmpGImg="http://ns.adobe.com/xap/1.0/g/img/" xmlns:xmpTPg="http://ns.adobe.com/xap/1.0/t/pg/" xmlns:stDim="http://ns.adobe.com/xap/1.0/sType/Dimensions#" xmlns:xmpG="http://ns.adobe.com/xap/1.0/g/" xmlns:xmpMM="http://ns.adobe.com/xap/1.0/mm/" xmlns:stRef="http://ns.adobe.com/xap/1.0/sType/ResourceRef#" xmlns:stEvt="http://ns.adobe.com/xap/1.0/sType/ResourceEvent#">
					<dc:title>
						<rdf:Alt>
							<rdf:li xml:lang="x-default">Mascot (Front)</rdf:li>
						</rdf:Alt>
					</dc:title>
					<dc:creator>
						<rdf:Seq>
							<rdf:li>Adrian &lt;Bizarrus&gt; Preuß</rdf:li>
						</rdf:Seq>
					</dc:creator>
					<dc:rights>
						<rdf:Alt>
							<rdf:li xml:lang="x-default">Created by Adrian &lt;Bizarrus&gt; Preuß, "Knuddels" is a registred trademark of Knuddels.de GmbH &amp; Co. KG Karlsruhe, Germany.</rdf:li>
						</rdf:Alt>
					</dc:rights>
					<dc:format>image/svg+xml</dc:format>
					<xmpRights:Marked>True</xmpRights:Marked>
					<xmpRights:WebStatement>https://github.com/Knuddels-UI/Vectors</xmpRights:WebStatement>
					<photoshop:City>Dortmund</photoshop:City>
					<photoshop:State>Nordrhein-Westfahlen</photoshop:State>
					<photoshop:Country>Deutschland</photoshop:Country>
					<photoshop:AuthorsPosition>Web- &amp; Softwareentwickler</photoshop:AuthorsPosition>
					<Iptc4xmpCore:CreatorContactInfo rdf:parseType="Resource">
						<Iptc4xmpCore:CiEmailWork>adrian.preuss@icloud.com</Iptc4xmpCore:CiEmailWork>
						<Iptc4xmpCore:CiUrlWork>https://github.com/Knuddels-UI/Vectors</Iptc4xmpCore:CiUrlWork>
					</Iptc4xmpCore:CreatorContactInfo>
					<Iptc4xmpExt:OrganisationInImageName>
						<rdf:Bag>
							<rdf:li>Knuddels.de GmbH &amp; Co. KG</rdf:li>
						</rdf:Bag>
					</Iptc4xmpExt:OrganisationInImageName>
					<Iptc4xmpExt:OrganisationInImageCode>
						<rdf:Bag>
							<rdf:li>Knuddels</rdf:li>
						</rdf:Bag>
					</Iptc4xmpExt:OrganisationInImageCode>
					<plus:PropertyReleaseStatus>http://ns.useplus.org/ldf/vocab/PR-LPR</plus:PropertyReleaseStatus>
					<xmp:CreatorTool>Adobe Illustrator CC 22.1 (Windows)</xmp:CreatorTool>
					<xmp:CreateDate>2018-03-31T16:03:46+02:00</xmp:CreateDate>
					<xmp:MetadataDate>2018-03-31T16:03:46+02:00</xmp:MetadataDate>
					<xmp:ModifyDate>2018-03-31T16:03:46+02:00</xmp:ModifyDate>
					<xmp:Thumbnails>
						<rdf:Alt>
							<rdf:li rdf:parseType="Resource">
								<xmpGImg:width>240</xmpGImg:width>
								<xmpGImg:height>256</xmpGImg:height>
								<xmpGImg:format>JPEG</xmpGImg:format>
								<xmpGImg:image>/9j/4AAQSkZJRgABAgEASABIAAD/7QAsUGhvdG9zaG9wIDMuMAA4QklNA+0AAAAAABAASAAAAAEA&#xA;AQBIAAAAAQAB/+4ADkFkb2JlAGTAAAAAAf/bAIQABgQEBAUEBgUFBgkGBQYJCwgGBggLDAoKCwoK&#xA;DBAMDAwMDAwQDA4PEA8ODBMTFBQTExwbGxscHx8fHx8fHx8fHwEHBwcNDA0YEBAYGhURFRofHx8f&#xA;Hx8fHx8fHx8fHx8fHx8fHx8fHx8fHx8fHx8fHx8fHx8fHx8fHx8fHx8fHx8f/8AAEQgBAADwAwER&#xA;AAIRAQMRAf/EAaIAAAAHAQEBAQEAAAAAAAAAAAQFAwIGAQAHCAkKCwEAAgIDAQEBAQEAAAAAAAAA&#xA;AQACAwQFBgcICQoLEAACAQMDAgQCBgcDBAIGAnMBAgMRBAAFIRIxQVEGE2EicYEUMpGhBxWxQiPB&#xA;UtHhMxZi8CRygvElQzRTkqKyY3PCNUQnk6OzNhdUZHTD0uIIJoMJChgZhJRFRqS0VtNVKBry4/PE&#xA;1OT0ZXWFlaW1xdXl9WZ2hpamtsbW5vY3R1dnd4eXp7fH1+f3OEhYaHiImKi4yNjo+Ck5SVlpeYmZ&#xA;qbnJ2en5KjpKWmp6ipqqusra6voRAAICAQIDBQUEBQYECAMDbQEAAhEDBCESMUEFURNhIgZxgZEy&#xA;obHwFMHR4SNCFVJicvEzJDRDghaSUyWiY7LCB3PSNeJEgxdUkwgJChgZJjZFGidkdFU38qOzwygp&#xA;0+PzhJSktMTU5PRldYWVpbXF1eX1RlZmdoaWprbG1ub2R1dnd4eXp7fH1+f3OEhYaHiImKi4yNjo&#xA;+DlJWWl5iZmpucnZ6fkqOkpaanqKmqq6ytrq+v/aAAwDAQACEQMRAD8A9U4q7FXYq7FXYq7FXYq7&#xA;FXYq4kKCSaAbknoBirDNc/Ob8qtDkaLUvNGnxzJs8MUwuJFNaUZIPUYfSMVYtN/zlZ+R8b8U1yWU&#xA;fzpZXYH/AA8Sn8MVRFp/zlD+R9yjN/iL0WRSxSa1u0NF32PpcST2ANcVfO35rf8AOV3nLzJcz2Hl&#xA;SWTy/oIJVJojxvpl6cnlXeKvXjGaj+Y4q8rtPKX5geZT+kLfStT1YS9b70Z5lb/nsQQfvzEza/Bi&#xA;NTnGJ8yLZxhI8gnPl/z3+bP5ZapEsFzqGkslCdKv1lFvIg7Nby0UjtyUA+BGXYc+PKLhISHkbYkE&#xA;c30ppP8Azmd5AbyzBeaxY3kWvbpc6XaRiVeS9JEmkaJPTbwJ5DpQ7E2oY3qH/OcahyuneUCyA7SX&#xA;F9Qkb/sJAaf8FirWn/8AOcalwuoeUCEJ3kt76pA2/YeAV7/tYq9D8pf85Y/lLr80dtd3NxoNzIQo&#xA;/SMYWHkf+L4mkRR7vxxV7Fb3FvcwR3FvKk0Eqh4po2DoyncMrCoIOKqmKuxV2KuxV2KuxV2KuxV2&#xA;KuxV2KuxV2KuxV2KuxV2KpR5s81aJ5U8v3mv63OLfTrFOcrdWY9FjRduTu1FUeOKvhL82/8AnIDz&#xA;n+YN5NB676X5bDEW+jwOQGTpW4daGViOx+Edh3Kqn5R/5x/88a/bx3l0sejWUgDI15y9Z1PdYFBY&#xA;e3PjXtnO6/2n0unPCCZy/o8vn+q3KxaPJPfkGaj/AJxUg4VPmtudPs/o4Ur8/rX8M03+jYX/AHX+&#xA;z/465P8AJku8MV80f844+eNJhkudLeHXLdByMVtyS6oP+KHHxH/JjZj7ZtdF7VaXMeGV4z58vn+u&#xA;nHy6LJDfmzb8mfyTsrSyg8xeabRbi/nAksdMnXkkCHdZJkbZpGG4VhRe/wAX2dJ7Q+0cjI4cBqI+&#xA;qQ6+Q8vPr7ueXo9EK4p/J7bU7e2w+QziSbdqBSXeYPL2jeYdKl0rWLZbqymB+Fqckam0kTblHXsw&#xA;/VtmTo9bl02QTxmiPt8i1ZcMcgovnvTP+cafMVx5hvrW9vEstDtZStvqBUSS3MZHJGjhDAD4SAxZ&#xA;hQ7DlQ56Bn9rsEcUZRHFkkPp7vefx8HTw0EzIjkA9H07/nHX8tbSNRcQXeoPT4nuLhlqfYQCGmc7&#xA;l9rtZI+nhj7h+u3Nj2bDqSvvf+cePyxuUKx2t1ZE9GtrliR/yPE4wY/a3WRO/DL3j9VLLs2HQl5j&#xA;58/5x01zRraXUfLtwdZsogXltSnC8jUb1VQSswHfjRv8nOm7M9q8OciGUeHM/wClP6vj83Bz6GUN&#xA;xuEr/Jz89vNP5c6lFEJZL/yzI/8Apuju1VAPWS3Lf3cg67bN0PiOrcJ95+V/M+i+aNBs9d0S5F1p&#xA;t6nOGUbHrRlZTurKwowPQ4qmmKuxV2KuxV2KuxV2KuxV2KuxV2KuxV2KuxV2KuxV8b/85k/mFcaj&#xA;5stfJdrLTT9FjS4vkU7PeTpyXkP+K4WHH/XbFUo/5x2/Le1vA3nDVoBLHDIYtIhkFV9RPt3FCKHi&#xA;fhTwbkeoU5xHtX2xLH/g+M0SLkfL+b8evlXe7PQaYS9cuT6GVWZgqgliaADcknPPncJpD5cvXTk7&#xA;LGT0U1J+mmS4XGlqojklk0fpyvHyDcCV5DoaeGRciJsWtxSyfRYNPksVZI1Z+kpcAnl/TwyYdfnl&#xA;ISU9U0KKRDLaKElG5jGwb5DscSE4dQRtLkg7by3dSAGdxCPD7Tfht+ODhbp6qI5boseWbWm8z1+j&#xA;+mHhavzcu5Qn8sSAVgmDH+VxT8RXBws46sdQlNxa3FtJwmQo3bwPyOCnJjMSGz5w/wCch/y1jsbj&#xA;/GGkw8LW6fhrEKD4Y53PwzgDosp2b/L/ANbPRPZXtg5Y/l8h9Ufp8x3fD7vc6bXabgPEORR//OJP&#xA;5py6B5u/wfqEx/Q2vuFtAx+GG/pRCPaYDgf8rjnZuvfauKuxV2KuxV2KuxV2KuxV2KuxV2KuxV2K&#xA;uxV5J+Z//OS/5f8AkaaXTo3bXNdi+F9Ps2XhGw/ZnnNUQ+KgMw7rir5z80/85d/mzq8jrpcttoNq&#xA;dlS1hWWXj/lS3Ak391VcVYFF5S/M3zzqE2tfo291S4vmEkupzL6ccjUAr60npxnYeOYGp7T02DbJ&#xA;OIPde/y5tkMUpchb6k/L+w1LS/K+m6Pd6Q2mPYwRwsPXtpkZgPjk5QyNu71Y7dTnlfa04Zc88kcg&#xA;nxG+Uh7huOgd9p7jERMSKZ/5at0eeWZt2iACDwLV3/DNZFGqkQAO9kLgsjAHiSCA3h75NwQgrfRd&#xA;Ph/3X6jd2k+L8OmCm2WeR6ok2lqRQwxkeHEU/VjTXxy72oLO2gZmhjEZb7XHYGnt0xpMpk81bCwd&#xA;irsVdiqldWsNzC0Uq1U9D3B8RgIZwmYmw8y89aLrF/pV/oljBYXCXkLwSvqMs8KAOCAwSO3nLFdm&#xA;G60O4OZvZ2XHhyxyTlIcJv0i/vkOfxczKZZIUBz83zpe/wDONf5j2g9S0m0++kXdVtrho2qN9muY&#xA;7dR9+egYva3RyO/FH3j9Vuqloco6JFfan+dPkedRdahrejVJEb/WLhYJCKVCurGKQbDoTm902uw5&#xA;xeOYl7v1c3FlCUeYpnnkT/nL38xdEnSHzII/Mem7B/UC290o8UmjUK3+zQ18RmUxfWn5efmX5R8/&#xA;6N+lPLt36oSi3dnIAlzbuwqFljqaV3owqp7E4qynFXYq7FXYq7FXYq7FXYq7FXEgCp2A6nFXyL/z&#xA;kL/zk3eXt1deUvI10YNPiZodS1uFqSTsKq8Vs4+zF4uN27fD9pV4n5C/LPzN51vCunxiGwjal1qc&#xA;9RCncqO7vQ/ZX6aDfNX2n2vh0cbmfUeURzP6h5t2HBLIaD6R8l/kv5I8sJHItoNU1QUrf3qrIQwp&#xA;vFEaxx77ilWH8xzzrtH2j1OpJAPBDuj+k8z93k7jDoYQ3O5em2+h6jcfG49MHvITy+7c/fmiot0t&#xA;RCOwRi+V9vjuN/Zf7ceFqOr8kbpukCxkd1mLh1oVIp369cIFNOXNxjkmGSaHYq7FXYq7FXYq7FXY&#xA;q7FVKe2t7heM0YcdqjcfI4KZRmY8knvfLYoXtH3/AN9P/Bv65ExcrHqv5yQ3dorRy2d5AskMg4zW&#xA;0yB43XwdGBVh8xhhklA3EkEdzlERmO8PGvzD/wCcdtG1KObUPKXHTdSALnTWP+iTHrxjZt4WO9Ny&#xA;nb4BvnY9le1k4EQ1Hqj/ADuo9/f9/vdbqOz+sPk8V8neb/N35becV1Gw9Sy1Oycw39jMCqyoD+8g&#xA;nQ9jT5g7jcDPQceSM4iUTcT1dURT9CvInnPSfOnlTT/Mmln/AEa+j5NESC8Uq/DJE9P2kcEe/Xpk&#xA;0J/irsVdirsVdirsVdirsVfO/wDzll+ccvl7SF8k6JPw1fVoi+qTxt8cFm3wiMEdHn3Hsn+sDir5&#xA;1/KH8rJ/OuqPcXnOHQLFh9cnXYyv1EEZ/mI3Y/sj5jND2721HRY6jvllyHd5n8buVpdMcp/oh9Ya&#xA;bpllp9nBp2nW6W1pAojt7aJeKqK9AB4k1Pid88qzZp5ZmczxSPV38YRgKGwZnpekRWiB3Aa4I+Jj&#xA;vx9lyIDr82Yy5ckwyTQ7FXYq7FXYq7FXYq7FXYq7FXYq7FXYq7FUPe2NvdxcJV3/AGXHVT7YCGzH&#xA;kMTsxG7tntrh4H6oeviOxyBdnCYkLeN/85Bflzb6voUnmmwhC6vpacr3gN57RdmLU6tCvxcj+wCO&#xA;y51/sr2uceQaeZ9E/p8pft+912v01jjHxb/5wr88Swaxq/ku4k/0a8j/AEjYKTss8XGOZV93jKt/&#xA;sM9IdO+uMVdirsVdirsVdirsVQ2qalaaXpl3qd6/p2djDJc3Mn8sUKF3b6FU4q/NLzl5n1Tzl5w1&#xA;LXrsNJe6rcl0hWrFVJ4xQpTc8ECovywEgCyr698i+Vrfyv5V0/RYVUSW8QN06/7suH+KZ69TVyaV&#xA;6Cg7Z4v2prTqtRLIeRO3kOn473pdPi8OADKNMkhjvopJjxjQliTv0BI/HMEMsoJiQGR2Ws293cmG&#xA;NGFAWDNTemTBcHJgMRZR+FodirsVdirsVdirsVdirsVdirsVdirsVdirsVYd5pv7S21aGO4lWJ7p&#xA;1t7cMac5PTaTiPfijHEYpSsgXwiz7th+l2GnkBEX1KCmhhnhkgnQSQSqUljbdWRhRlPsQaZCEzGQ&#xA;kOYciUQRRfKf5U3D+Tvz90a29Sos9ZbSpZCeIKzSNZMzdqUkrnuGmzeLijP+dEH5i3l5RokP0Jy5&#xA;i7FXYq7FXYq7FXYq8W/5yr896Xov5Y6joSX8Sa5rQighsg4M5tzKGmcoNwhRGXkdt6Yq+VfyQ0bT&#xA;L3zvDqGq3ENtp2ir9ekkuJFjQyoQIV5MV6Oef+xzQ+0eonDTGGMEzyenYXt1+zb4uVo4Azs8hu+m&#xA;7PzbaaqSugRPqkYJU3y1jsVI/wCXlhSTfb9yshHcZ5rPs+WIXmPh+XOX+l6f53C7oZxLaPq+75p/&#xA;a211LSNQZpT1KLQfdU0HzOYMqJ2bOLhFyLJtG0lrPlLMQZnFKDoo64QHCz5uLYck0yTjOxV2KuxV&#xA;2KuxV2KuxV2KuxV2KuxV2KuxV2KvOvzg8nXPmHR2jsp/qmpRvHdaXedory2PKMn2YfD7VrvSmZ/Z&#xA;msjp83FMcWOQMZD+iebeImePhH1A2GKeTfzK0/VW/RGuAaN5stSIr7Sbk+mWkH7cBbaRH+0vEk08&#xA;RQm7tHsaeH95j/eYJbxkN9vPur8dzkYNUJ7HaXc+bfMuopb/AJv6hqEVEW212SUMrcQTFdVLhx05&#xA;Fa1z07skEaTED/qcfudHn/vJe8v0fjkjljWSNg8bgMjqQVZSKggjqDmwal2KuxV2KuxV2KvFv+ch&#xA;vz9t/wAv7D9CaKUn83X0fKOtGSzibYTSL3c/7rQ/M7bMq+OtG0Pzl+YfmaURNLqWqXTerfahcuxV&#xA;Aesk0prxUdh9CjoMw9dr8Wlx8eQ0PtPubMeOUzUX0F5L/wCcfPJ2hrHcauP07qIoT668bVG6/DBU&#xA;8/D94SD/ACjPPe0favUZrji/dw/2Xz6fD5u2w9nxjvLcvX9F06O6uFiI4wQqPgXYBRsqinQZy9mR&#xA;suVlnwR2ZXDBDCgSJAiDsBTJOvlIncr8LF2KuxV2KuxVjfmH8yfIXl27Flreu2djeEAm2klHqgHo&#xA;WRasoPaozN0/ZuozR4scJSj30xMwOZTvTtS0/U7KK+065ivLKccobmB1kjceKupIOYuTHKEjGQMZ&#xA;DoWQNonIK7FUNqGqabp0Hr6hdw2cFaercSJElf8AWcgZPHilM1EGR8t1JX2d7Z3tutzZzx3Nu/2J&#xA;oXWRG+TKSDgnCUTUhR81tWyKuxV2KuxV2KpReahA1xJYX8fGNj8Eq9gd1O/SnjkSXKhjNCUWA/mT&#xA;+TGh+bbZf0jC31qFeNpqtrQXEa1J4OCCHSu/E+/ErU5tuy+2c+iPo9UDzieX7CxyQx5ufpk+a/O/&#xA;5CedfLqTXtoBremR1eS4tQROiipLS25q4oBVihZR3Od92d7SabUVE/u59x/Qf7HX5tJOG53CP/JH&#xA;/nIHzF+XuoQ2F9LLqPlGRqXOnMeTwBjvLalj8JHUpXi3sfiHQuK+7dG1nTNa0q01bS7hLvTr2NZr&#xA;a4jNVZGFR7g+IO4OxxVGYq7FXYqlHm/zLZeWPK+qeYL3e20y2kuXStC5RaqgPi7UUe5xV+bmsatr&#xA;/nPzZPqF0WvNb1u6B4r+1LKwWONATso2VR2FMhkyRhEykaiBZSBZoPrj8u/Iun+TfLcOmW4V7twJ&#xA;NRuwN5pyNzU0PBeiDsPcnPHu1+056zMZn6R9I7h+s9XotNgGONderKM1bkMg8sR0ink8WVR9AJ/j&#xA;k4uFqzuAneScN2KuxV2KuxVQvnu47G4ks4hNdpE7W0LHiryBSUUt2BbauSxgGQ4the6l876f/wA4&#xA;jTakbjUvN/mWSXWb1mmuPqUYKCWQ8mJkl3k3P8i52eT2uEKhhx+iOwvu9w5fMuOMF8y9C/Jr8rNe&#xA;/LltW0uXVo9V8v3bJcWPwNFLFOKrKGjq60deG4f9noM03bPauPW8MxHgyDY9QR03+fTq2Y4GL03N&#xA;G2OxV8rfmJ+TP5l+f/ze15EuCNGsni+q6jfu4t44poUkEFuqq1SvI1Cild2NTv3/AGd2zpdJoobe&#xA;uV2I89iRZ/HucWeOUpFFeT/y2/Mr8nfOukX5u01Dyrqt3Dp+rG0Z/TQXLiKOSeJwOHB2BWQVp0rv&#xA;Q16ztLS9pYJxrhywiZRvy3NH9CYwlA+T6fzhHJdirsVdirsVY55mC/WoiPtFN/lU0yEnP0n0lNtJ&#xA;uo5rKFRIGkVAHWu4ptuMkC42aBEilvmS3hjMU6USViQ1Niab1+jIyb9LImweT54/PD8nLK9sbrzV&#xA;5egEGpW6tNqdlEtEuI13eZFGyyqN2A2Yb/a+12vs37QSEhgzG4naMu7yPl3d3u5Yut0YA4o/FH/8&#xA;4bfmdNBqV1+X+ozFra6V7zRORrwmQcriFfZ0/eAdKq3ds9BdU+tsVdirsVeFf85j67Np/wCVEWnx&#xA;Gn6Y1GC3mHSsUSvcH/kpEmKvAf8AnGny3DqHmu91qdQ66NAogU1qJ7rkiv70jSQfSDnI+2GsOPTx&#xA;xj/KHf3R/bTsOzsfFO+59M55q7tLND1211qGa8sCJdOWRoba6G6zmIlZXjp1jDjgG7kGnw0JytVp&#xA;ZYSIz2nVkd18gfPr8uttePJx7jk9B0e1NvYRqwo7/G492/sykBwM8+KSNwtLsVdirsVdirsVdirs&#xA;VdirsVdirTIrqVcBlOxUioOIKt4q7FXYq7FXYqk2s6VLOZrvnXgg9OMDsu53+/IkOXgzAVFjoJBq&#xA;DQjvkHObZ3c1Zix8Sa4qBTQJBBHUdMVIfI+pufy5/Oz6zZj0oNG1SK7hjTtayFZxF8vQk4HPZ+yd&#xA;Uc+lhkPMx3942P2h5nPDgmQ/RFWVlDKQysKqw3BB7jNi1N4q7FXzf/zm7byN5N8u3AH7uPUXjY/5&#xA;UkDFf+TZxV57/wA4sNF9V8yKKeqHtC22/Eibjv8AMHOB9tgeLF3er/eu27M5S+DIfOnmm883+aF/&#xA;LnyzOY4TU+Z9UiP9zboR6sMbCvxGvBu3IhT+1mB2doY6TB+czjf/ACcT1PQn7x5b9zbnynJLw4fE&#xA;vZfKnl60t7a3hghEOnWKJDbQitOMYCqu9SQoHfOayZJZJmcjcpGy25piEeGLLcDguxV2KuxV2Kux&#xA;V2KvFdX/AD584X2rX1t5B8j3nmTTNOna2m1hBKYZJYzR1jEcbCg7HnuN6DOy0XskZ4xPLPhMhyAu&#xA;ve48s9HZ6R5G81z+YtDt7nUbF9G1zhy1HQrgkXNsebohkjdY5FWUJzQsoqM5/tTs2ekymBsx6Sqr&#xA;/sbYT4gyLNazdirEPzE/M3QvItrZPfw3N9fanKYNN02yQSXE8gpXipK7Aso8dxQHNn2Z2Vl1kjGF&#xA;AR5k8mE5iPNL9A/NuK71qx0TzD5e1TyrqOqBv0Z+k4gsFwyipjSUH+8p+ywHh1pmd2h7N59NjOSx&#xA;OI51dj4dzGGYE0z/ADnm12KuxV2KuxV3XY4qxTV9Me0mLqK27n4D4f5Jysh2eHLxDzSPVbi7trGS&#xA;6tIDcy2/7xrZKmSWNftpH/xZx3QftMAu1ai7TQjOXDI8N9e49L8u/u59GWSRiLHRvStV0/VdPg1H&#xA;Tp1ubO5XnDMnQj9YIOxB3B2ORz4J4pmExUgyjISFjk+Rfzn1K31H8z9euIDyjSaO3J/y7aFIH/4e&#xA;M5617P4Tj0WMHuv/AExMv0vPauV5ZF+hflV3fyxo7uxZ2srYsxNSSYlJJJzcuOmmKuxV49/zlhos&#xA;OpfkzqMzuiSaXcW17B6hC8mD+iVUn9oxzNQd+mKvjv8AL3zH5xsZb7QfKsZfUPMKR2waOvqpwLHn&#xA;G1QEorNVz9kfFtSuantTR6fII5c/0YrPl8e/pt15N+DLONxjzk+o/wAo/wAr7TyppS6dEwn1K7Il&#xA;1W+ApyZeirXfhHyIWvUknatM827Z7Wlrct8scfpH6fef2O3w4hghZ+p7DFFHFGscY4ogoozVuJIk&#xA;myuxQ7FXYq7FXYq7FWP/AJg6y+i+RfMGqxtwms9PuZYGBofVETenv/r0zM7Pw+LqIQPKUh8r3YzN&#xA;Apl5Hs9F8m/ljo0M7x6dpul6bDJeTSkRIremHmkkLdC0jMze5z2YcnXschms3/OnVZreZZ49Q8t6&#xA;Xdwyx0ZGjF1eIGVhswI4kHOL9sx6MZ85focjT8yzHOBcp2KvJtQutEm/5yR0651u6jt7Dy7o0Ysj&#xA;Mfg/SWo3DQxDf4QWjbavcDPRvZHGI6Yy6ymfsA/a4mc7qn/OSHmPSb7ybrNlas9v5s8mXOn65a28&#xA;y8HMf1hIUuoGBKyRfvmB4mqnZgDnU5YRnExlyO3zaQ9M0u/i1HTLTUIdoryGO4j3r8MqBxv8jnie&#xA;XGYTMTzBr5OxBROQV2KuxV2KuxVbLFHLG0cihkYUIOKQSDYYpqmlyWUnJatAx+B/D2PvlZDssOYT&#xA;Hm8O/MJ/M/5a3d/5j8sRrN5d1jkdQsHBMVnfyCi3KKPspI1Kj7PL4dvgp2XZYwdpRjizms2Pkeso&#xA;D+H4fPr3uDmMsBJj9MvsLwXyZ5fuPNXnPSND9T97q17FBLM7bgSOPUck9SFqfE/PPRAABQdQ/TWO&#xA;NI41jjHFEAVVHQACgGFV2KtMyqpZiFVRVmOwAHc4q+D/APnIr857r8wvNH6J0mRj5W0uUx2ESVpd&#xA;TiqNclR1rUrH4L4FjgJpXqf5O/ljb+TtEW6vIw3mHUIwb2Q7mFDRhbofBf26dW8QFzyr2g7aOryc&#xA;MT+6idvP+l+ryd9o9L4Ys/UXtmg2XoWglYfvJviPsv7I/jmgiGvUZLlXcmeScd2KuxV2KuxV2Kux&#xA;V5z/AM5EXTW35NeZZFrVooItttprqKM/g+br2djxa7GPM/ZElry/SXnutfn/AGfk3XvzE8qeZrab&#xA;zDAJ44NB02ZI5LMBYOEiTc25LEzKjFVDb1oASTnrLgpn/wA47anJfxaDLMayp5bktx1A42+sXSqq&#xA;17JGyD22zi/bIfu4f1v0ORp+Ze65wDlOxV8ofnhrHmnQ/wAwfMPmfSryOG30vVNDtPqksSTCW4Ww&#xA;kvYJPjVhxiIaq/zMD2FPUvZmP+BQ8+I/7Ij9DhZvqYlb/mF5q/MC883al5nuhdTQ+WbiO3jRFiij&#xA;RLq3kAREp+38RJqTm/I2an1l+VFwbj8sfKkpry/RNkpJNSSkCKTX341zx7taNarKP6cvvdhD6Qyr&#xA;NeydirsVdirsVdiqyaGOaJopF5IwoRimMiDYYXrejQBZ7C8hW5srlGR45AGSSJxQqw/Xgx5JY5CU&#xA;TUhyLsomOSO75R/Nb8mNU8oTPrGj+peeXS3L1hvLaMW+FZqb8egWTpXY0NK+o9ie0ENWOCfpzd38&#xA;7zH6nS6nSnGf6L2n/nHP/nJWTVJbXyZ51uK6i/7vStblYD1z+xBcE/7sPRH/AGuh+LdujcR9N4q8&#xA;R/5yv/Mh/K35f/oWxlMer+ZC9srKaNHaIAblxT+YMsf+yPhir5q/5x88oJrnnX9JXCc7LQ1W5Neh&#xA;uGJFuD8irOPdc5n2p1/gabgH1ZNvh/F+r4ubocPHOzyD6vsrf6xdxQ9nYcvkNz+GeXB3eSXDElmo&#xA;AAoNgOgyx1LsVd03OKpbc6/YQsVUmVh/J0+8/wAMjxORDTSPkoDzPb13hcD2Ix4mf5Q96NtNXsbk&#xA;hUk4ueiPsf6YQWmeGUeaMwtTsVeU/wDOT5I/JvVgDQGa0B9/9JQ50Hsv/jsfdL7i1ZvpfLP54iYf&#xA;m/5uEteX6TuCORqeJaqfRxpTPU3Ce7/840SoIvLcRPxtoeqMo9l1hAf+JDOP9sB+4if6Y+6Tkafm&#xA;+hc88cp2Kvkj/nIXh9U8zyPIWnm8126hTv8ABBo0Y2+XqgZ6x7PADRY/cf8AdFwcv1F5v+Wik2fn&#xA;V9gkflu5LkkCnK6tkXr4s4GbmXJrfaX5RRPF+V3lRXFCdKtHHyeFWH4HPH+1zery/wBeX3uwx/SG&#xA;W5rmTsVdirsVdirsVdiqD1WxF3aMoH71PijPv4fTgIbcOThl5MOlijljeGVFkikUpLE4DKyMKMrK&#xA;diCDQg5GMjEgg0Q7OUQRRfJv50/lyPJnmRLnTVZNE1MtNYUJJgkQgyQcvtfByBQn9kjckE56v7P9&#xA;rfnMPq/vIbS8+4/H73n9Vp/Dl5F9af8AONf5pS+e/ISpqM3qa/ojLaaixPxypxrBcH/jIoIY92Vs&#xA;37ivmP8A5ym82v5g/N7UrdH5Wehomm24rtyjHOc08fWdl+QGKvSf+cctFjsfy9W/+Ey6tczTlgKM&#xA;Eib0FQnuA0TMP9bPL/a7Umer4OkIgfP1fpHyd52dCsd972LQmUanDXvyA+fE5zEebk6gegssyx1j&#xA;sVY9r+ps0htImoi7Skdz4fIZCRc7TYtuIpLkXLXCGYioRiPEA4o4g0yspowIPgdsU2nuhas7uLW4&#xA;bkT/AHTnr/qnJxLhajDXqCe5Jw3mX/OSlv635L+YKLyeP6pIvtS8h5H/AIEnN77NSrXY/wDO/wBy&#xA;WvN9JfKv5882/N3zJK4Aae4SfipqAJoY5AKkDoGz1ZwXtv8Azjk0MY8lOvxSz6Pr0D0P2eGqW0oq&#xA;Pp/HOV9r43pQf6Y+6Tfg+p9FZ5s5bsVfJH/ORggXT9VPSeXzbcDvUpHo+n9vYyfjnrHs/wD4nj9x&#xA;/wB04OX6i87/AC5g5eW/zCn5f3fl9U40689UsjWvtwzcSLW+3Py+t/q3kLy1bUK+jpVlHxb7Q4W6&#xA;Ch99s8a7QlxajIe+cvvLsIcgn+YjJBalqkNioBHOVt1QGm3icBNN2LCZ+5J28y3pPwxxgdtmJ/Xk&#xA;eJyhpI+ba+ZrwH4ooyPbkP4nHiQdJHvKZ6frdtdsI2HpTHopNQfkcILj5NOY78wmOSaHYq7FWEXP&#xA;E3EvH7PNqfKuVO3jyDAPzt8uprf5caooUG405f0jbsduJtgWkP8AyIMg+eb72b1Zw6yPdP0n48vt&#xA;pxddj4sZPc8r/wCcR/NMmj/m3b6azlbXXraazkUn4fUjUzxNTxrEVH+tnrToHkevarLq+u6jq0xJ&#xA;l1C6mupCepaaRpDX6WxV9jflpbR235e+XI4xRW062lI/ypYlkb/hmOeM9szMtXlJ/nyHyNPSaYVj&#xA;j7mTwytFKkqfaQhh9Ga1ukLFMuOq2S2yXDyBVcVVere4p88st1ngyukufXbm5k9Gwh+I9Gbc/OnQ&#xA;fTg4m8acRFyK+08uxD47tzK53KgkCvuepxEUT1R5RTSG0tYR+6iVKdwBX78NONKZPMquFi0yI4oy&#xA;hh4EVxSDSGbS7BnD+iqupqGSq0I77UwU2DNLlaKwtTCfzssTe/lP5phA5cbCWem/+6KTV28PTzad&#xA;iT4dZjP9ID57MMg9JfJX/OQcLf8AKxfrxYP+k9L0q8DilG5WEMZYUAG5jJz16J2cB6Z/zjnd/wCm&#xA;eSYoz/unzDFMKf5dpKB/xHOb9qxej/zg3YPqfT+eYuY7FXyF/wA5I/3d5/4FOof90jSs9Y9n/wDE&#xA;8fuP+6cHL9RYN5CjZfy5/Mq6UEOmnadDzFaBZtVt+Snt8QTNyRu1vuvSLQ2elWVoQQbeCKIgkE/A&#xA;gXcjbtniWafFMy7yXZBF5WrGfMNvcC8MxUmFgArDoKDofpyEnYaaQ4a6pbFBNM3GJGc+Cgn9WRcg&#xA;yA5otdE1RhUQH6WUfrOGi1fmId6lNp1/bjnJCygb8huB9IrjTKOWMuRTnTdehaIR3bcJV25kGjfd&#xA;0OSEnFy6Y3ceSYjUbAiv1mL6XUfxw20eFLuKD1LW7aKFkt3EkzCgK7ha969MBLbi05J35MYyDsEP&#xA;qNpHeafdWcv91cwyQyD/ACZFKnw7HLtPkMMkZDmCCwyC4keT48/J+7e0/NbyhMjBP9zFjGzE0ASW&#xA;4SN6mo/ZY57k8uxW5t5ba4lt5hxlhdo5F8GU0I+8Yq+1fy+/5QLy1/2yrL/qHTPFu1f8by/8Mn/u&#xA;i9Np/wC7j7gitQ8xWtvqtto1uPrWsXSmVbVP91QKaNPO2/pxg7Cu7Nste0MOjlKByS9OOPXvP80d&#xA;5+4blZ5QDwjeRTZFdiqD4nNAAB1J8BmIWzkN2X6Zp6WduFoDK28jeJ8PkMmA6zLk4z5IzC1OxV2K&#xA;uxV2KuxVLfM2m/pTy3qumceX16zuLbie/rRMlO/82X6bJ4eWM/5sgfkUEWHxt+e0X1vRPy28wLut&#xA;95YtbORv5prAlJD0G/7wZ7WHXMu/5x8nh+t/l2ob4/0j5oiYf5X6PsZAv/A75oPacf4FP3x/3Qbc&#xA;P1Pq3PLHNdir5C/5yR/u7z/wKdQ/7pGlZ6x7P/4nj9x/3Tg5fqKR/lLppuvy483xMWA1TVfLmmxA&#xA;dHL3ryOp2P8AKpzZ6rLwY5S7ok/YWERu+2c8Udi7FXYq0qqoooAHgNsU23ih2KpXqGhW9xV4aRTe&#xA;32T8xkTFyceoMdjuGOXFvNbymKVSrjt/EZBz4yEhYU8UuxVpvsn5ZKPMIlyfFv5XwJP+ZflKByQk&#xA;utaejEdaNdRg0rnuzyqd/n75Vk8s/m15isuHG3ublr+0PYxXn74BfZGdk+jFXrdp+aFl5Y/JPQdU&#xA;HCXUZbQWWm2rH7c1vWFnYA14R8Kt9A2JzzTJ2NLU9p5IcoCXFI+R3+Zvb59HdjUiGAHrWzKPys8q&#xA;XmjaG2paw7z+ZdcK3msXEv2wxH7uHoKCJTSnY1ptTNb25ro5svh49sOL0xA+0/H7m7SYjGPFL6pc&#xA;3pXl209W7M7D4IRt/rHpmmiE6mdRrvZNk3XuxV2KuxV2KuxV2KuxV8jfmtpHqfklZRhKy+SfNWq6&#xA;G57rDcSPcKf9X+7A+jPadDl8TDCf86IPzDr5Ciu/5x5mCyeSWYUSHzJrKk9SWutEiVdvYxfjms9p&#xA;Bein7h/uos8P1B9b55S5rsVfJH/ORsKvp+o3Aapj83XkdB0+PR9NJ+7089Y9n/8AE8f9U/7pwcv1&#xA;FN/ya0BoPyy8nu4pL5g87xXcfblb6ZbSt9PGa3b/ADGW9tz4dJkP9Ej57fpRj+oPqDPInPdirsVd&#xA;irsVdirsVQGs6eLu1JUfvowTGe58V+nAQ34MnCfJhd/bTXNsUgnNrcpVra5A5cHp+0hoHQ/toevY&#xA;hgrCWDKIn1Dij1H6j0Pn87FhzskCdxsUn8r+al1aW80y9iFl5g0phHqVhWoHIVSaFjTnDKvxKfvz&#xA;K12gOHhnE8WKf0y/Qe6Q6scObjsHaQ5hHeZNTGleXtU1MgkWNpPccR1PpRs9BXuaZRosPi5oQ/nS&#xA;A+ZZZpVAnyfL/wDzjtojax+c3liALVLa5N9ISKgC0Rpwf+DRR889veYe6/8AOaHkBrzRNM87WkdZ&#xA;dMYWOpEDf6vM1YXPskpK/wCzxV87/lbpVx5m88+X9Ju3efT7KRpjC/xxpDEWuHTidgsknwn/AFs0&#xA;/bOcabS5MkdpyFX1s+kfIfc5GmhxzjE8n2Lnj70bK9CtxFpyH9qUlz9Ow/AZOLrdRK5+5MMk0OxV&#xA;2KuxV2KuxV2KuxV4vqvkhvMWvfmn+X3NYpNftdP8xaHz2VZ4x6UrE+DTwKrEDoTnqfszqPE0cR1j&#xA;cfkb+4hwswqTD/yn/LvzN5P07y9c+ZNPl068fzgIEtpVBb020q4QShgSODSHjUdaZkdvi9Fk936Q&#xA;jF9QfTGeSOc7FXi91+Uyfmb5e86aML8aZcWnnWa7iujGZhRdOto3QoGj6rJXr1Geu9h/4nj/AKrg&#xA;ZfqLKpfKmnaD5r/LrynpYJsvLWm6neszU5FuENosjU/ale6lY071zX+1eXg0lfzpAf779DPAPUz7&#xA;PMnMdirsVdirsVdirsVdirEtatBb3z8RRJPjX6eo+/KyHZ4J8UXkf5x2t9obad+YejCmoaI62+px&#xA;g0W4sJnpwk8QsjADb9qv7Izp/Z+cM8ZaPL9M94+Uh3fD7vNxdYDAjJHpzSv86PzB0y6/Ki2n0ubk&#xA;vmVkjgHLjIsUZ9SeoH8rIInH+Vl/s72VOGvIyD+55+87D9Y9yNZqAcQr+JV/5wm8pNNq+vebZo/3&#xA;VpCmm2jkbGSYiWbif5kSNB8mz0l0r2n/AJyV1qPSvyX8xuwVpLyOOyiRgCC1xKiMd+6oWYfLFXzR&#xA;/wA4uaXHLreu6oT+8tLaG2Re1Ll2cn/p3GcV7aZiMWPH/OkT/pR/x52fZkfUT3PovPPHcM4gT04I&#xA;4/5FVfuFMsdRI2SV+Fi7FWE/m/8AmTbfl/5Om1gos+oTOLbTLVzRXncE1am/BFBZqfLaubTsfs06&#xA;zOIcojeR8v2sMk+EWl/5BeeLvzj+XFpqGoXBudWtpp7bUpTQEyq5kU0FAKxSJ02y7t/QjTakxiKg&#xA;QCPx7wUYpWHo2aVsdirsVdirGtR0ae28/wCieb4KiCztL3TtZVFeSVrSZRPEUjjDO5S4gUcVBPxV&#xA;7Z1fsv2rDTyljyHhjLcHpf7f0NGaBO4Rs+uaJ5vntI4LPUVh0y4TUIru8sZ7KIyorIqKLxIZSaSk&#xA;1VKbfaGbv2j7XwHTHHCQlOX803XfdNeLGbspxnnLluxVJLTU9J8nyao88F7dNrWofXljsLC6u+HO&#xA;3hgb1GgjdR8cBO56EZ6N7O9q4I6UQyTjGUb5mvNxMsDxbIxbaG910+Y+EsT3FhBaRW068ZIlSWWV&#xA;yQGYAyeolR/kjNB7S9rY9VOMcZuMOvef2NuGBjzR+cw3OxV2KuxV2KuxV2KuxVJ/M0Ia2il7o/H6&#xA;GH9mRk5ekluQxDWNLtdW0m80u6H+jX0ElvKepCyqUJHuK1GWabOcOWOSPOJBcvLDiiR3vh2+i1K3&#xA;nbSboyc7KaSL6qSSEl5BJAq9iWQVp1pntuPgl64/xAb946PMG+T9DvyS8h/4H/LbSNElQJqDR/Wt&#xA;T2FfrVx8cimnX09o6+C5Yh5z/wA5p3rQ/ljplqpIN1q8PPwKR287EH/ZcTirzr/nF2KMeXNalA/e&#xA;PeIjN4hYgQP+GOed+2kj42Mf0T97uOzB6T73tecW7NnYIIqOhy10zsVdirCfze/Lez8/+TrjSHKx&#xA;ajCfrGlXR/3XcICAGP8AI4PFvv6gZtOyO0paTOJ/wnaQ8v1hhkhxB83f849edrv8v/zDu/KvmFGs&#xA;rXVJRZ3aTfD9XvIiVididgrFihPTcHoM7b2h0UdZphmx+oxFjzj1/W42KXCaL7HzzVzHYq7FXYq7&#xA;FXYq7FXYq7FXYq7FXYq7FXYq7FXYq7FXYql3mAA6Y/sykffkZcm/TfWxXIOyfHH5sWz6X+aOu+iS&#xA;kgvPraNTo84W4rQ1/akz2PsPLx6PEf6NfLb9DzepjWSQ836N2N0l3ZW90lOFxGkq0PIUdQwoR165&#xA;tWh89/8AObX/ACgOhf8AbVH/AFDS4q88/wCcWr3npev2O37me3nHifVR1/5lZ597a46njl3iQ+Vf&#xA;rdv2YdpB7nnEO0Zlp04nsYZBuSoDfMbHLA6rLGpEInC1uxV2KvDv+cjvyUbzXp58z6BbhvMdin+l&#xA;W6D4ry3QdAB9qWMfZ8R8P8udV7Odtfl5eFkP7uXL+if1H9ve05sd7jmpf845/navmGxi8oeYpuPm&#xA;KxThZ3EpobuGMU4kk1M0YHxd2A5deWS9o+xPBkc2Ifu5cx/NP6j9nyRiyXseb3bOTb3Yq7FXYq7F&#xA;XYq7FXYq7FXYq7FXYq7FXYq7FXYq7FUt8wtTTWH8zKPxr/DIy5ORph62LZB2L4+/O2cTfmjrzilB&#xA;JCm3jHbxof8AiOevez0a0OP3H7y85qz+9k/Qbyn/AMoro3/MDbf8mVzdOO8m/wCcwNGm1D8n3uo6&#xA;kaTqNreSAfysHtd/puRir5v/AOccdeXT/PjafK5WLVrZ4UX9kzRfvUJ/2KuB885b2u0viaXjHPHK&#xA;/gdj+hz+z51krvfUmeYO8Tny9fiOQ2shokhrGfBvD6clEuLqcdjiDIsm4DsVdirsVeGfnT/zjwnm&#xA;C5k80+TSNP8ANCN689urelHcyLvzRxT0pqivLox60PxZ1fYvtF4I8HP6sXK+dfrH3fY0ZMV7jml/&#xA;5Yf85HS2t0PKf5nRvpetWreiNVnQxqxHRbpaD02/ywOJ6mnU3dqezgkPG0nrgd+Ef73v93NEM3ST&#xA;6BhmimiSaF1kikAaORCGVlO4II2IOceQQaLkLsCuxV2KuxV2KuxV2KuxV2KuxV2KuxV2KuxV2KpB&#xA;5mugWitlP2fjf5nYZCRc3SQ5lI8i5j4k883Bv/PevTQkyi41K69Gm9VM7BAKe1M9r7Nx8Gmxx7oR&#xA;+55jMbmT5l+l2n2q2lhbWi0428SRDiKCiKF2H0ZmtaA82+XLPzL5Y1Ty/ebW+qWsts70qUMikK4H&#xA;ijUYe4xV+bF1ba35R80yW8wNrrOh3hVh14z28nUV+0tV28RlebFHJAwlvGQo/FlGRBsPsnyd5psf&#xA;NHlyz1qzICXKD1Yq1MUq7SRt7q33jfPGO0NFLTZpYpdPtHQvS4conESCdAkGo65hNjIdK11HVYbt&#xA;uMg2WU9D8/A5MScHNp63imF5qEVs8CtuZnC/Jf5sJLRDGZX5IrC1uxV2KsP/ADB/KjyX58tBFrln&#xA;/pca8bfUoKR3UXsHoeS/5Lgr7Zsuz+1s+kN4zt1ieR/HkwnAS5vFf8F/nz+UDtL5Uuv8UeVkYs2n&#xA;cGkKqTU1tqmRD7wMfE50/wCd7P7R2zDwsvf/AMe5f6Zp4Zw5bhl/k7/nKryLqrLaeY4ZvLmog8JP&#xA;WBmtuYNKeoih19+aADxzXaz2V1GP1YiMkfLY/L9RZxzg89nr2k65ousW31nSb+31C32/fWsqTJv0&#xA;3QsM5zLgnjNTiYnzFNoIKNypLsVdirsVdirsVdirsVdirsVdiqWLqvDV5bSU/u2KiJvBuI2+k5G9&#xA;3IOG4CQRV9fwWcReQ/FT4I+7HCS148ZkdmITzyTzPNIau5qcrdpGIAoJF5z8yQeWvK+pa3MR/ocL&#xA;NCjdHmb4Yk2B+1IQMzeztIdTnhiH8R393X7GvPk4IGT5e/IjyjP5r/NbQLAIXtre5W/vmpUCC0Il&#xA;bl7OVCfNs9reZforirsVfL3/ADlz+TM12p/MTQoC8sKKnmG3jFWMaCiXdB14KOMn+TQ9AxxV4n+T&#xA;H5mnyfrRtNQdjoGoMBdDc+jJ0WcDrsNnp1HjQZzvtD2N+bxcUP72HLzH839Xn73M0ep8OVH6S+sI&#xA;ZopokmhdZIZVDxyIQysrCoZSNiCM8qlExNHYh34Nr8CoOy1iO+vNQtFLeppc6W0gav7dvFcCntSf&#xA;L8uAwjCR/jjf+yMf0MISBJHcf0M70q8F1ZI5NZF+GT/WHf6cgC67NDhkjMLU7FXYq7FWLecPyv8A&#xA;Ifm9G/T2jwXNwRQXqj0rkU6Umj4vQeBNPbM/R9qajTf3cyB3cx8uTGUAebx/WP8AnEZLW6N95M8z&#xA;3OmXC1MUdyCWFd6C4gMTKP8AYHOkw+13EOHPjEh5fqN/e0nB3FCReVf+cufLbBNP1iPXIl7PcQXH&#xA;Ie7X6xSf8Nlh1fY2f6oeGfcR/uLCOHIEfa/mP/zlLZkRXvki2vKDeRYmDE7dWiuCn3LlMuzeyZbx&#xA;zGPx/XG08c+5Ml/Nb/nIJmCj8tRUmgrI4G/uWyn+Suzv+Uj7E8c+5Mbfzv8A85H3Knh+X9jb9Qsk&#xA;99EACPFfWDHKJaHsyP8Al5H3RP6k8U+5N7Jv+cib5l+tDyzo8BpyIW8u5xQ9QokSI/8ABZjzHZsO&#xA;XjTP+aB91svX5M00HTNftFZ9Z1o6pMyheMdtFawKa15Ki+pJXtvKR+vNXny45fRDgHvJP6B9jMA9&#xA;U3zHS7FXYq7FXYqwy/nEt9NKp2LniR4DYHKy7bHGogKDu7sWdizHqxNTgZgUtJAFTsB1OKvlz89v&#xA;zOi8z6omi6VKH0PTJCxmXdbi5AKmQHuiAlUp1qTuCM9P9mexjpsfi5B+9mP9LHu956/B0Wt1PGeE&#xA;fSH0V/zip+Us/lDyrL5i1eExa7r6oyQuKPBZj4o0YHdWkJ5uP9UHcZ1LgvdMVdiqR+YPNnl/S0e3&#xA;vZBPKylXs0AkYqwoQwPwgEfzHFXxR+cf5VQW+p3ev+ULFodGlYyTaUp9RrcndmiAA/df5P7Py6Ko&#xA;D8qvzs1DyoE0nVw99oFaRhaGa2qdzHX7SeKE/L35jtv2chqv3mP05fsl7/Pz+bnaXWnHsd4vpfQv&#xA;MGi69p6aho95He2j9JIzUg9eLqaMjf5LAHPNtTpcuCfBkiYy/Hzd1DJGYsG2EeWNYFv+dHnPRJmI&#xA;+uQ2N7aA7A+jaxxycfc81/4HN5rtPxdm4Mo/hMon4yJH3fa4mGdZpxPV6vo+ofU7n4z+5k2k9vBv&#xA;oznAXIz4uIebLAQQCDUHcEZY6x2KuxV2KuxV2KpPqHmnTNOgnmu1nRLccplSJ5XAHUhIg7tQb/CC&#xA;fDJYoGchEcz37fadm44JVfMMftfzu/Ke5FU8z2UZHVZ2aBhQ0oVmCMD7UzZS7E1kf8nL4b/c43iR&#xA;71aX85vypjQu3mrTSB1Czo532+ytTgHY2rP+Sn8l8SPemOl+ffLWr2v1rS55buA/YlEE0aPXvG8y&#xA;Rq491JzC1Onnhlwz2l3WD86O3xb8WIz3HJPoXeSJXdDGzCvA7kfPKWMhRX4sXYq7FXYq7FUs1zUR&#xA;b25hQ/vpRT5L3ORJcjT4uI2eQYVrOr2GjaVd6rfyelZ2cTTTP34qOgHdj0A7nJ6fTzzZI44C5SNO&#xA;fOYiCT0Su+87+X9H0O11PzBewac08EczQM/JyzqCyxoB6klCey5lY+zcuXLKGGJnUiL/AFnkGs54&#xA;xiDI08A/ND89tR8yxy6PoCyWGiyDhPK21xcKdircSeEZ/lBqe5oaZ3vYvszDTEZMtTydO6P6z5/2&#xA;up1OuM9o7RTz8ifyv0+01uz8zedrJ5bKCktjpZAJMg3SW4jbqq9QnfvtsercB9o6XrOmarB61hcL&#xA;Mo+0o2Za/wAyncYqjcVSrzVeXll5evrmyB+sxx1QjqoLAM3+xUk4q8Od3d2d2LOxJZiakk7kknFV&#xA;uKsB85fk95e195Luz/3Gak9WaWJaxSN4vHtufFae9cVeZv5L/NHyNftqGkevROt3p7GRWUHYSRUq&#xA;V70dCMxtTpMWePDkiJDz/R3fBnDJKBuJpB3H5p+ZJvPGm+bLuKJdU01UgmSNDEJUQsriQb0Z0cqf&#xA;wGa8diYY6aWnF8ErO+9f2Ft/My8QT6vrTQNd07XtHtdX02T1bO7jEkZ2qK9VYCtGU7MPHPKNVpp4&#xA;MhxzFSiXoMcxOII5Mj0vWntQIpgXg7U+0vy9spBas2AS3HNkdvd29wnKGQOO4HUfMdclbgSgY81R&#xA;24ozULcQTxHU07DCgBStru3uY+cLhh3HcfMYLZTgYndWwsHYqg9Q0q3vVq3wSj7Mg6/I+OAhuxZj&#xA;D3MJ1v8AKzQdSnM9/oljqEpNTcPDEZD82YBvxzKw6/UYhUMkojuEjXyb+PFPeQF+5Dab+Uflq0uF&#xA;mtPLlhbTLus/oQ8lPipoWH0ZLJ2nqpipZJkf1it4Y7gD5M407Q4bVhLKfVmHT+VT7ZhANWXUGWw2&#xA;CZ5Jx3YqtkkjiQvIwVB1Y7DFIBPJTtblLmMyxg+nUhGO3KncDwwBlOHCaKsSAKnphYJVqGvW8AKW&#xA;9JZelR9kfT3+jImTk49MTudgxueeSWRpZW5O27Mci54AAoPmP88PzSPma/XyxoEhm0m3lAmli3+t&#xA;3ANFCU+1Gh+z/M2/ZTnpXs12GdPHxso/eS5D+aP1n7OXe6XW6rjPDH6QgdN/IbzXekTarfQWZenI&#xA;EtcSjbvTiu3+vnWAACg6+3o/lL8qfK3lx0uVjN9qKbrd3FDwP/FaD4V+e598KszxVNPLN5fWmu2b&#xA;2Rb1nlSMoP21dgCpHcHFXumKuZVZSrAFSKEHcEHFWD6/+WNpdSPcaVILSRtzbuCYif8AJI3T7jir&#xA;C7/yV5msifUsZJUH+7If3oI8fhqfvGKpLJHJGxSRSjjqrAg/ccVW4qwH82fII8x6R9dsIgdZsQWj&#xA;Cj4po6fFGfE7VT7u+KvL/wAr/wA1NV8jag9vOj3WiTv/AKZYVoyP0MkXL7LjuOjdD2I0XbXYcNbG&#xA;x6co5H9B8vucrS6o4j/RfU3lrzVoPmXTV1DRrtLqA0DgbPGx/ZkQ/ErfPPL9ZocumnwZI8J+/wB3&#xA;e73HljMXEpurMpDKSCOhGxzEbCEQup6gooLh6e5r+vDbWcUe5RjnlikEiOUcmgYGm/Wn4YhkQDsU&#xA;4tPMrii3Sch/vxNj9I6YRJxp6X+anFvqNlcU9KVSx/ZOzfcclbiyxSjzCIwtbsVdirsVWSzwwryl&#xA;dUHixAwMhEnklV35jt0BW2Uyt/Mdl/qcBk5ENKTz2Y/Pqsl9PIrzeo0BCyIv2UZgGC7bBuJBp1oQ&#xA;e4xlEgAnrycuEYx2CJi1jUYo1jSWiKKKvFdh92RtEsECbIU7jUL24FJpmZf5eg+4UGNso4ox5BKd&#xA;Y1zR9FsnvdWvIrK1StZZmCg07KDux8AN8u0+myZpcOOJlLyTOcYiyafOn5r/AJ7XHmCGbQ/LnO10&#xA;Z6pdXjVWa5XuoHWOM9x1YdaCoPofYfsyNORlzerJ0HSP6z9g+10+q13H6Y8kH+SPkea81MeZL2Ir&#xA;ZWZIsQwp6k/TmK9Vj3/2XyzrnXPd8VRFrYX123G1t5Z26UjRn/UDirIdN/LnzJeMDNEtnEerzMOV&#xA;PZFq1fnTFWf+W/JWlaHSZa3F7ShuXFKV68F/Z/XirIMVdirsVdiqnPbW868Z4klX+V1DDf54q8l/&#xA;Maw+qa9+6tI7W0aNfQMSBFc9XJ4gDlyNPlTFWK4q81/Mb8oLXXZJNU0Upaas1WnibaKc+Jp9h/fo&#xA;e/jirxrj5w8l6uJB9Z0fUY9lkUlOQ70YVSRfvGUajTY80eHJESj5soTMTYNPT/LX/OTet2yLD5h0&#xA;6PUANjdW59CX5slGjY/6vHOS1nsbikbwyMPI7j9f3uxx9pSH1C2aQf8AOS/kCSMNJbajC/dDDEe3&#xA;YrKds00vY/Vg7GB+J/U5I7Rx+aXeYv8AnI/yXc6Zc2lnY6jJNKhEM1I4OEnVJFkEjsGRqEfD94zK&#xA;0fsnqYTEpShXUbmx1FV197Vl18JCgDaC8if85J27RxWPnCAxyii/pW3WqN7ywruvuUr/AKoy3tP2&#xA;QIJlpzt/NP6D+v5rg7RHKfze06Pr2i61ai60m+hvoDSrwOr0r2YA1U+xzjNRpcuGXDkiYnzdlDJG&#xA;QsG02i1C9i2jndQOgqSPuOU2g44nmEQuvaoBT1Qfmq/0x4iw/Lw7mzr2qEf3oHvxX+mPEUflodyj&#xA;JquoyfauH/2J4/8AEaY2zGGA6JB5j83eXtAtzda7qUVmpFVEr1kf/UjFXf8A2IOZWl0ObUSrFEy/&#xA;HU8gs8kIDc08X83f85Capq0jaP5DsJjNLVRfvHznIHUwwLyp/rNX/VBztezPZARInqDf9Ecvif1f&#xA;N1mftG9ofN59oP5v/mP5X5WS3ReNZHkktL+IO3qSsXdmZgs1WZiT8Wb3Wez2k1BuUalyuJrly25f&#xA;Y4mLWZIciyuP/nKDzUIiJNIsWm2o6mZVr3+Eux/4bNQfYzBe0518P1OT/Kc+4JNrP/ORH5i6gjR2&#xA;8ttpiNUVtYavQ/5Uxl39xTM3T+yejxmyJT/rH9VNU+0Mh5bMbtPLf5g+c7wXjRXeoPJSt/ds3p8T&#xA;vtLKaUHgv3Z0GHBjxR4YREY+QpxJTMjZNvRfKv5CWtvJHc+YroXTKa/UbfksRPg8h4sw9gB88tYv&#xA;Wbe3gtoI7e3jWKCJQkUSAKqqBQAAdBir1P8ALTTEfSJJryxiNZa208kS82UqK0YipWvTFWcgAAAC&#xA;gHQDFXYq7FXYq7FXYq7FXYqo3dnaXkJguoUnhbqkihh898VYpqP5X6FcEtaSS2bnooPqJ/wLfF/w&#xA;2Ksfuvyp1hCTbXcEyj+flGx+ijj8cVSi/wDyu8w3EZhudNhvIT1R3hdT/sZCMVYlf/8AOO+lXO83&#xA;lVVqf90MYvwhdcVSLUf+ccfLlnD611o13bwjrJ6spX6TVqYqgIPyW/L6JwzWMk1P2ZJ5af8ACsuK&#xA;rtb/ACd8k6jZehb2n6OnUfurm3J5A/5SsSHHz39xiry3U/yo/MHy5dm70gyXKx/3d3p8jRzAdfsA&#xA;rID/AKtchkxRmOGQEh3HdMZEbhu2/OP82tBdbe7v5jx/3TqECsxp4s6iX/hs0uf2b0WTfg4T/RJH&#xA;2cvscmOtyjqnEf8Azk15/VArWWluR+00M9T/AMDOBmAfY7SH+LJ84/8AEt38pZO4fj4qF5/zkl+Y&#xA;k60iSwtD/NDA5P8AyVklGTx+yGjjz45e8/qAQe0ch7kob8zfzg8wsYbbUr6csePCwiERFe1bdEI+&#xA;/Njh9n9Fj5Yx8bl99tMtXlP8SZaH+Svm7Wbr655huDZJIeUrSv690/4kCvizV9s20IRiKiKDjkk8&#xA;3sHlbyX5f8s2xh0u34yOAJrp/imkp/M/h7CgySEx1DSNK1KP09QsoLxOyzxpIP8AhgcVS22/Kzyf&#xA;e3AhtfL1vNO/SOOKp+4dsVZLpv5JPZPysvLFrBIP92cbcP8A8Gxr+OKsjg/LPzQ9A0cMI/y5Af8A&#xA;iAbFU1s/ymuCQb2/RB3WFC3/AAzcf1YqyXS/IHluwYP6BupR0e4PP/haBPwxVkYAAAAoBsAMVdir&#xA;sVdirsVdirsVdirsVdirsVdirsVdirTojoyOoZGFGUioIPYg4qwzV/yv0m6dpbCZrKRt/Tpzir7C&#xA;oI+/FWL3v5Z+ZbckwrFdqOnpuFNPlJwxVJ7jyv5it6+rptwAOrLGzj71BGKpddadLwKXVq3DussZ&#xA;p4dGGKpRP5V8sXG8+j2UxqT+8tom3PU7riq638s+W7en1fSrOGlSPTt4lpXr0UYqmUMAAEcMdFHR&#xA;EGw+gYqjIdH1aeno2U8tenCJ2/UMVTO18iearkjjYtGp6tKyx0+hjy/DFU/0/wDKi8YhtQvUiHdI&#xA;QXPy5NxA+44qzbQ/Lek6LEUsYqO4pJO55SNTxP8AAbYqmmKuxV2KuxV2KuxV2KuxV2Kv/9k=</xmpGImg:image>
							</rdf:li>
						</rdf:Alt>
					</xmp:Thumbnails>
					<xmpTPg:MaxPageSize rdf:parseType="Resource">
						<stDim:w>283.000000</stDim:w>
						<stDim:h>303.000000</stDim:h>
						<stDim:unit>Points</stDim:unit>
					</xmpTPg:MaxPageSize>
					<xmpTPg:NPages>1</xmpTPg:NPages>
					<xmpTPg:HasVisibleTransparency>False</xmpTPg:HasVisibleTransparency>
					<xmpTPg:HasVisibleOverprint>False</xmpTPg:HasVisibleOverprint>
					<xmpTPg:PlateNames>
						<rdf:Seq>
							<rdf:li>Cyan</rdf:li>
							<rdf:li>Magenta</rdf:li>
							<rdf:li>Yellow</rdf:li>
							<rdf:li>Black</rdf:li>
						</rdf:Seq>
					</xmpTPg:PlateNames>
					<xmpTPg:SwatchGroups>
						<rdf:Seq>
							<rdf:li rdf:parseType="Resource">
								<xmpG:groupName>Standard-Farbfeldgruppe</xmpG:groupName>
								<xmpG:groupType>0</xmpG:groupType>
							</rdf:li>
						</rdf:Seq>
					</xmpTPg:SwatchGroups>
					<xmpMM:DerivedFrom rdf:parseType="Resource">
						<stRef:instanceID>xmp.iid:091b5bac-ab04-2b42-923b-4dbb25aaa38b</stRef:instanceID>
						<stRef:documentID>xmp.did:091b5bac-ab04-2b42-923b-4dbb25aaa38b</stRef:documentID>
						<stRef:originalDocumentID>xmp.did:39a23791-1fc5-fc4b-8562-eb3f04e3d95c</stRef:originalDocumentID>
						<stRef:renditionClass>proof:pdf</stRef:renditionClass>
					</xmpMM:DerivedFrom>
					<xmpMM:DocumentID>xmp.did:629ea1f0-70c0-964b-97fd-29d6a9181b17</xmpMM:DocumentID>
					<xmpMM:InstanceID>xmp.iid:629ea1f0-70c0-964b-97fd-29d6a9181b17</xmpMM:InstanceID>
					<xmpMM:OriginalDocumentID>xmp.did:39a23791-1fc5-fc4b-8562-eb3f04e3d95c</xmpMM:OriginalDocumentID>
					<xmpMM:History>
						<rdf:Seq>
							<rdf:li rdf:parseType="Resource">
								<stEvt:action>saved</stEvt:action>
								<stEvt:instanceID>xmp.iid:39a23791-1fc5-fc4b-8562-eb3f04e3d95c</stEvt:instanceID>
								<stEvt:when>2018-03-31T15:50:12+02:00</stEvt:when>
								<stEvt:softwareAgent>Adobe Illustrator CC 22.1 (Windows)</stEvt:softwareAgent>
								<stEvt:changed>/</stEvt:changed>
							</rdf:li>
							<rdf:li rdf:parseType="Resource">
								<stEvt:action>saved</stEvt:action>
								<stEvt:instanceID>xmp.iid:629ea1f0-70c0-964b-97fd-29d6a9181b17</stEvt:instanceID>
								<stEvt:when>2018-03-31T16:03:46+02:00</stEvt:when>
								<stEvt:softwareAgent>Adobe Illustrator CC 22.1 (Windows)</stEvt:softwareAgent>
								<stEvt:changed>/</stEvt:changed>
							</rdf:li>
						</rdf:Seq>
					</xmpMM:History>
					<xmpMM:RenditionClass>proof:pdf</xmpMM:RenditionClass>
				</rdf:Description>
			</rdf:RDF>
		</x:xmpmeta>
		<?xpacket end="w"?>
	</metadata>
	<path id="Shadow" fill="#999999" d="M22.9,250.3l0.2,0.2c8,7.8,17.9,12,28.6,14.9c5.1,9,12.7,16.2,22.7,19.1 c7,1.8,14.4,2.1,21.6,2.1c4.1,0.1,8-1,12-1.3c3.4,1.3,6.3,3.7,9.8,4.9c10.5,3.9,22.3,4.8,33.4,3.4c10.2-1.3,19.4-5.3,27.6-11.6 	c11,4.7,23.4,4.4,34.4,0.2c6.3-2.5,12.4-3.8,16.9-9.1c3.2-3.1,4.4-7.5,7-10.9c3.7-1.2,7.4-1.5,11-3.1c4.6-2.1,8.9-5,12.5-8.6 	c4,2.6,10.4,4,12.6,8.4c1.4,2.5,0.3,5-1.6,6.8c-3.1,2.7-7.2,4.5-11.1,5.8c-7,2.1-14.2,3.3-21.4,4.2c0.6,1.5,2.1,3.5,1.5,5.1 	c-0.9,2.1-3.7,3.5-5.7,4.4c-11.3,4.5-22.8,5.6-34.9,6.1c-3.6,0-4.8,2.6-7.6,4.3c-2.7,1.6-5.9,2.4-8.9,3.2c-17,4.4-34.1,4.4-51.5,3.9 	c-11.2-0.7-23-2.1-33.5-6.1c-3.6-1.2-5.7-5.3-9.4-4.9c-14.1-0.4-27.3-0.9-40.7-5.7c-3.2-1.3-6.2-2.3-7.6-5.8 c0.4-1.5,1.1-2.9,1.7-4.3c-6.8-0.8-13.6-2.1-20.2-3.8c-4.4-1.3-9.1-3.3-12.6-6.4c-2-1.9-2.7-4.5-1.1-6.8 C11.5,254.1,18.2,252.3,22.9,250.3z"/>
	<g id="Body">
		<path id="Border" d="M144,0.7c4.7,0.8,8.1,3.6,11.5,6.8c5.9-2,12.2-3.1,18.4-2.5c6.1,0.6,11.9,1.6,17.2,4.8 c7.6,4.3,12.7,11.5,16.1,19.2c3.1,0.3,6.2,0.5,9.2,1.1c6.6,1.1,13,4.9,17.6,9.7c8.7,8.9,11.4,23.1,11.6,35.1 c11.3,5.8,18,17.6,19.6,29.9c0.9,5.8,0,11.8-2.5,17.1c5.9,5.1,11.7,9.8,15.2,17c5.3,10.1,5.3,20.8,4.6,31.8 c-1.2,9.6-4.5,19-8.7,27.7c1.5,8.3,1.4,17,0.6,25.3c-1.2,10.3-6.3,19.3-13.7,26.5c-3.6,3.6-7.9,6.6-12.5,8.6 c-3.6,1.6-7.3,1.9-11,3.1c-2.6,3.4-3.8,7.7-7,10.9c-4.5,5.4-10.7,6.6-16.9,9.1c-11,4.2-23.4,4.5-34.4-0.2 c-8.1,6.3-17.3,10.3-27.6,11.6c-11.1,1.3-22.8,0.4-33.4-3.4c-3.5-1.2-6.4-3.6-9.8-4.9c-4,0.3-7.9,1.4-12,1.3 c-7.2-0.1-14.6-0.4-21.6-2.1c-10.1-2.9-17.7-10.1-22.7-19.1c-10.6-2.9-20.6-7-28.6-14.9l-0.2-0.2c-8.5-7.6-14.4-18-16.3-29.3 c-1-10-0.7-20.5,2.1-30.2c-5.2-11-9.6-21.4-7.9-33.8c2-13,7.8-25.8,17.1-35.2C15,113.4,14.4,104.5,17,96 c2.5-9.4,9.6-17.6,18.2-22.1c1.9-11.5,7.8-22.4,16.2-30.5c7.2-7,16.5-11.7,26.5-13c1.8-10,9.5-19.3,19.7-21.5 c8-1.9,16.6-2.2,24.7-0.8C128,2.3,135.8-1,144,0.7z"/>
		<path id="Body_1_" fill="#FEFF35" d="M271.9,146.7c-1.9-5.9-5.2-11.3-10-15.2c-9.3-7.2-16.4-17.7-21.6-28.1 c4.6,4.6,8.9,9.5,13.7,13.9c2.9-5,4.7-10.3,3.2-16.1c-1.6-7.8-7.1-13.2-13.7-17.2c-4.5-2.5-9-3.5-12.9-7.1c-2.5-2.3-5.8-5-6.8-8.4 c-0.6-2,0-4.5,0.3-6.5c1.8,3.6,3.5,7.1,6.5,9.8c1.8,1.6,4.5,2.5,6.7,3.4c1.3-7.4-0.1-14.9-3.6-21.5c-2.3-3.7-5.6-7.3-9.1-10 c-10-6.6-21.3-10.6-33.3-8.4c0.3-0.1,0.6-0.3,0.9-0.4c-0.2-0.3-0.5-0.6-0.7-0.8c2.2-0.9,4.4-1.6,6.6-2.3c-3.4-5-6.1-11-11.1-14.4 c-5.6-4.3-13-5.1-19.9-4.6c-5,0.5-9.3,2.3-13.2,5.5c-2.1-5.1-6.1-9-11.8-9.7c-7.7-0.5-14.6,4-18.2,10.6c-8.3-6.1-21.3-6.3-29.4,0.4 c-4.4,3.4-6.1,8.1-8,13.1c3.3,0.8,6.5,1.7,9.8,2.6c-12.8-0.5-24.6,3.6-34.6,11.4c-5.7,4.1-10.5,9.1-12.9,15.8 c-1.5,4.2-3.2,8.2-5,12.2c7.3-1.4,13.6-4.5,20.2-7.9c-4.9,4.8-10.7,7.4-16.7,10.5c-4.1,2-8,3.5-11.5,6.5c-4.1,3.3-6.8,8.2-9.2,12.8 c-3.2,6.1-2.8,13.8-1.3,20.4c6.5-6.7,12.4-14,18.9-20.6c-2.3,6-5.8,11.2-9.3,16.6c-5.4,8.2-13,12.7-17.1,21.9 c-7.4,14.4-7.6,30.2-4.8,45.9c2.2-3,4.3-6.3,6.7-9c3.7-4,8.1-7.1,12.8-9.9c-7,7.1-12.8,14.7-15.1,24.6c-4.8,14.6-4.4,31,2.9,44.7 c4.4,7.4,9.9,15,17.1,19.8c4.2,3,8.8,5.2,13.4,7.4c-1.9-7.3-1.8-13.2,0.3-20.4c0.8,8.5,2.3,16.7,7.6,23.7 c5.6,8.1,14.5,13.2,23.7,16.3c7.1,2.3,14.3,1.9,21.5,0.5c-1.9-2.7-3.9-5.3-5.8-8c3.5,2.5,6.7,5.3,10.3,7.5c9.1,5,19.3,7.9,29.7,8.5 c6,0.3,12.1-0.8,18-1.6c6.4-0.8,12.4-3.7,18.2-6.4c5-2.5,8.5-6,12.8-9.5c-1.5,2.1-3,4.2-4.5,6.3c4.5,1.2,8.8,2.4,13.5,2.2 c6.3-0.2,12.7-2.3,18.5-4.7c6.7-2.9,12.2-8.7,16.8-14.2c2.8-3.2,4.5-7,6.5-10.7c-0.1,2.4-0.2,4.9-0.3,7.3 c11.4-3,20.5-11.4,25.5-21.9c1.6-3.5,2.1-7.2,2.6-10.9c1-8.3,1.7-16.3-0.3-24.5c-2.2-9-6.3-18.3-13-24.8c-1.9-2-4.1-3.7-6.2-5.5 c4.6,2.1,8.9,4.7,12.4,8.3c4.3,4.2,7.1,9.1,10.3,14.1c2.7-6.6,4.8-13.3,5-20.5C274.2,161.6,274.4,153.9,271.9,146.7z M64.3,64.1 c0.3-0.1,0.5-0.3,0.8-0.4c0,0.1,0,0.2,0,0.3c-0.3,0.1-0.6,0.3-0.8,0.4C64.3,64.3,64.3,64.2,64.3,64.1z M230,92.5 c-0.2-0.1-0.5-0.2-0.7-0.3c0,0,0-0.1,0-0.1C229.5,92.2,229.7,92.3,230,92.5C230,92.4,230,92.4,230,92.5z M224.8,97.8 c0.1,0,0.1,0,0.2-0.1c0.1,0.3,0.2,0.6,0.4,1c-0.1,0-0.1,0-0.2,0.1C225,98.4,224.9,98.1,224.8,97.8z M193.5,157.6 C193.4,157.6,193.4,157.6,193.5,157.6c0.2,0.2,0.5,0.4,0.7,0.6c-0.2-0.1-0.4-0.3-0.6-0.5C193.5,157.7,193.5,157.6,193.5,157.6z M234.7,164.6c2.5,1.7,4.9,3.5,6.9,5.8c-0.4-0.4-0.8-0.8-1.2-1.2C238.7,167.4,236.8,165.9,234.7,164.6z M244.4,123 c-0.8-0.9-1.7-1.8-2.6-2.7c-0.7-0.8-1.5-1.5-2.2-2.2c-0.6-0.6-1.2-1.2-1.8-1.8c-1.5-1.5-3-2.9-4.4-4.3c-0.5-0.6-1.1-1.1-1.6-1.7 c-0.1-0.1-0.3-0.3-0.4-0.5c2.6,2.8,5.5,5.3,8.2,8.1C241.2,119.5,242.9,121.2,244.4,123z M241.4,87.2c-0.1-0.1-0.2-0.2-0.3-0.3 c-0.1-0.2-0.3-0.3-0.4-0.5c-0.6-0.6-1.3-1.1-2-1.6c0.8,0.5,1.6,1.1,2.3,1.8C241.1,86.7,241.2,87,241.4,87.2z M228.7,79.6 c-0.7-0.5-1.3-1-1.9-1.5c-0.2-0.2-0.4-0.4-0.6-0.6C227,78.3,227.8,79,228.7,79.6z M218.7,51.6c-0.2-0.2-0.4-0.4-0.6-0.6 c-1.2-1.3-2.6-2.4-4.2-3.5C215.7,48.7,217.4,50.1,218.7,51.6z M189.3,31.3c-0.4-0.5-0.9-1-1.4-1.4c-0.9-1-1.9-1.9-3-2.7 C186.5,28.3,187.9,29.8,189.3,31.3z M150.3,24.7c-0.5-0.6-1.1-1.1-1.6-1.7c-0.9-1-1.8-1.8-2.9-2.5 C147.5,21.6,148.9,23.1,150.3,24.7z M115.9,24.6c-0.1,0-0.2,0-0.3,0c0.1-0.3,0.2-0.5,0.3-0.8c0.1,0,0.2,0,0.3,0 C116.1,24.1,116,24.3,115.9,24.6z M31.8,160.2c0,0,0.1,0,0.1-0.1c0.1,0.1,0.1,0.1,0.2,0.2c0,0-0.1,0-0.1,0.1 C31.9,160.4,31.8,160.3,31.8,160.2z M190.3,266.1c0.4,0,0.7,0.1,1.1,0.1c0,0,0,0.1-0.1,0.1c-0.4,0-0.7-0.1-1.1-0.1 C190.3,266.2,190.3,266.1,190.3,266.1z M236.7,237.1c0.1,0,0.2-0.1,0.3-0.1c0,0.1,0.1,0.2,0.1,0.2c-0.1,0-0.2,0.1-0.3,0.1 C236.7,237.3,236.7,237.2,236.7,237.1z"/>
		<path id="Shadow_2_" fill="#F0C401" d="M142,9.3c5.7,0.6,9.7,4.5,11.8,9.7c3.9-3.2,8.2-5,13.2-5.5c6.9-0.5,14.2,0.3,19.9,4.6 c5,3.4,7.8,9.4,11.1,14.4c-2.3,0.7-4.5,1.4-6.7,2.3c-2.4-2.8-4.5-5.5-7.7-7.4c-6.5-3.7-14.3-5.4-21.7-4.2 c-3.7,0.6-7.4,2.2-10.9,3.6c-3.2-3.6-5.8-7-11.1-7c-3.4-0.3-4.7,1.6-6.7,3.8c1.8,2.4,3.3,4.8,4.8,7.3c-4.4-1-8.6-2-13.1-1.6 c-4.3,0.3-8.2,2-12.2,3.5c1-2.7,2-5.4,3.1-8.1c-2.6-0.2-5.4-0.6-7.9,0.3c-4.4,1.3-7.5,5.2-8.6,9.5c-0.5,2.5,0.7,5.4,1.4,7.8 C92.5,42,83,42.4,75.7,46.7c-4.3,2.4-8.1,5.2-10.3,9.7c-1.4,2.7-1.2,5.8-1.4,8.8c2.2-1,5.1-3.4,7.6-2.9c2.4,2.2,0.5,6.8-1.6,8.6 c-4.4,3.5-10.3,5-14.9,8.1c-1,0.6-1.4,2.1-1.8,3.1c-1.6,5.5-1.5,11.1-3.5,16.6c-1.3,3.8-3.4,7.1-5.9,10.1 c-7.7,9.6-14.1,19.5-17.5,31.4c-1.7,7.6,0.8,14.7,5.2,20.9c4.3-2.6,8.8-4.4,13.6-6.1c2.8-0.8,3.3-3.2,4.7-5.4 c2.3-4.5,6.1-8.2,10.8-10.1c8.1-3.4,18.3-1.6,25.3,3.3c4,2.7,6.5,6.6,8.5,11c-7-1.2-14.4-3.4-21.5-3.3c-11,0.5-21.4,3.1-29.8,10.5 c-4.3,4.2-7.2,10.2-9.4,15.6c-4,9.9-6.1,20.5-4.9,31.2c0.8,7.5,4.2,14.4,9,20.1c3.7,4.4,8.3,7.3,13.2,10.1c1.2-2.4,2.4-4.8,3.6-7.1 c4,11.4,9.7,24.3,20.6,30.7c6.3,4,13.3,5.2,20.7,5.1c-0.7-1.9-1.5-3.9-2.2-5.8c12.8,8.3,28,14.8,43.3,15.9 c9.9,0.5,20.4-0.1,29.9-3.2c9.6-2.9,18.2-7.8,26.4-13.3c-1.1,2.2-2.2,4.4-3.3,6.5c5.2,0.5,10,1.2,15-1c5.5-2.5,11.7-5.6,15.7-10.3 c2.8-3.3,5.3-7,7-11c2.1-4.9,1.7-10.4,2.1-15.6c3,2.6,5,5.5,6.7,9.1c2.3-0.9,4.5-1.7,6.4-3.3c4-3.2,6.3-8.2,8.1-12.9 c1.5-3.9,1.8-7.9,1.9-12c0.1-6.8,0.1-13.3-2.1-19.9c-1.9-5.4-4.3-10.8-7.2-15.8c-3.1-5.2-7.8-8.1-12.8-11.3 c-3.1-1.8-6.2-3.8-9.9-4.3c-3.6-0.5-7.4-0.5-11.1-0.1c-3.4,0.4-6.6,2.1-10,2.6c-2.7-0.3-5.9-1.5-7.5-3.7c-1.3-3.4,0.8-7.6,3.5-9.6 c2.9-2.2,7.5-2.4,11-2.4c5.7,0.1,11.9,0.2,16.5,3.9c3.5,2.5,5.7,6.3,9,8.9c4.5,1.6,9.8,1.7,14.5,1.4c4-0.3,6.9-2.9,8.3-6.5 c1.7-4.4,1.9-9.9-0.4-14.2c-4.2-7.6-9.4-14.4-15.7-20.3c-2.8-2.9-5.8-5.6-8.5-8.5c-3.2-3.4-4.4-7.4-6.1-11.7 c-1.6,0.6-3.1,1.1-4.6,1.7c1-3.4,2.2-6.7,2.1-10.3c-0.1-3.5-1.8-7.1-3.1-10.4c2.8,1,5.4,1.7,7.3,4c2.4,2.7,2.3,6,2.7,9.4 c3.3,1.3,7.5,3.1,11,2.4c3.4-1.3,2.6-5.9,0.6-8.1c-2.7-2.7-7.1-3.8-10.3-5.7c-5.3-2.9-8.7-8.3-9.8-14.1c-0.6-4.3,1.7-9.5-0.8-13.3 c-2.3-4.2-7.7-6.8-11.6-9.4c-5.8-3.7-12.2-5.5-18.3-8.6c12.5-2.7,24.3,1.4,34.7,8.2c3.5,2.6,6.7,6.3,9.1,10 c3.5,6.6,4.9,14.1,3.6,21.5c-2.2-0.9-4.9-1.8-6.7-3.4c-3-2.8-4.7-6.3-6.5-9.8c-0.3,2.1-0.9,4.5-0.3,6.5c0.9,3.4,4.3,6,6.8,8.4 c3.9,3.6,8.4,4.6,12.9,7.1c6.6,4,12.1,9.4,13.7,17.2c1.5,5.8-0.3,11.1-3.2,16.1c-4.8-4.4-9.1-9.3-13.7-13.9 c5.2,10.5,12.2,20.9,21.6,28.1c4.8,3.9,8.2,9.3,10,15.2c2.5,7.3,2.3,14.9,2.1,22.5c-0.2,7.2-2.3,13.9-5,20.5 c-3.1-5-6-9.9-10.3-14.1c-3.6-3.7-7.8-6.2-12.4-8.3c2.1,1.8,4.3,3.6,6.2,5.5c6.6,6.6,10.8,15.8,12.9,24.8 c2.1,8.3,1.4,16.2,0.3,24.5c-0.5,3.7-1.1,7.4-2.6,10.9c-4.9,10.5-14.1,19-25.5,21.9c0.1-2.4,0.2-4.9,0.3-7.3 c-2,3.7-3.8,7.4-6.5,10.7c-4.5,5.5-10.1,11.4-16.8,14.2c-5.8,2.5-12.2,4.5-18.5,4.7c-4.7,0.1-9-1.1-13.5-2.2 c1.6-2.1,3.1-4.1,4.5-6.3c-4.3,3.4-7.8,7-12.8,9.5c-5.8,2.8-11.8,5.6-18.2,6.4c-5.9,0.8-12.1,1.9-18,1.6 c-10.4-0.6-20.6-3.5-29.7-8.5c-3.6-2.1-6.9-5-10.4-7.5c1.9,2.7,3.8,5.3,5.8,8c-7.2,1.4-14.4,1.8-21.5-0.5 c-9.2-3.1-18.1-8.2-23.7-16.3c-5.2-7-6.8-15.2-7.6-23.7c-2.1,7.2-2.2,13.1-0.3,20.4c-4.6-2.2-9.2-4.4-13.4-7.4 c-7.2-4.8-12.8-12.5-17.1-19.8c-7.3-13.7-7.7-30.1-2.9-44.7c2.3-9.9,8.1-17.5,15.1-24.6c-4.7,2.7-9.1,5.9-12.8,9.9 c-2.5,2.8-4.6,6-6.7,9c-2.8-15.7-2.6-31.5,4.8-45.9c4.1-9.2,11.7-13.7,17.1-21.9c3.5-5.4,7-10.6,9.3-16.6 c-6.6,6.6-12.5,13.9-18.9,20.6c-1.6-6.6-2-14.2,1.3-20.4c2.4-4.7,5.1-9.5,9.2-12.8c3.5-3,7.5-4.4,11.5-6.5 c6-3.1,11.8-5.7,16.7-10.5c-6.6,3.4-12.9,6.5-20.2,7.9c1.8-4,3.5-8.1,5-12.2c2.5-6.7,7.2-11.7,12.9-15.8 c10.1-7.8,21.9-11.8,34.6-11.3c-3.2-0.9-6.5-1.8-9.8-2.6c2-5,3.6-9.7,8-13.1c8.1-6.7,21.1-6.5,29.4-0.4 C127.4,13.3,134.3,8.8,142,9.3z"/>
	</g>
	<g id="Mouth">
		<path id="Shadow_1_" fill="#F0C401" d="M163.6,251c-4.7,7.4-13.7,12.7-22.6,11.7c-7.2-0.9-13.4-4.6-17.6-10.6 c2.4,0.1,4.7,0.3,7.1,0.8l0.2,0.2c3.6,3.6,9.6,4,14.4,3.8c4.2-0.1,7.8-1.8,11.5-3.7C158.8,252.3,161.2,251.6,163.6,251z"/>
		<path id="Line" d="M130.6,253l-0.2-0.2c8.6,1.8,17.4,1.6,26,0.2c-3.7,1.9-7.2,3.6-11.5,3.7C140.2,257,134.2,256.6,130.6,253z"/>
		<path id="Mouth_1_" d="M68,191c1.6,8.9,6.7,16.8,12.5,23.4c9.2,10.2,21,16.6,33.9,21c12,3.4,24,5.8,36.5,5.4 c8.5,0.2,16.9-0.8,25.4-1.6c-7.8,3.3-17,4-25.4,4.6c-13.5,1.1-27.6-0.7-40.2-5.7c-15.1-5.5-30.5-14.8-40.1-27.9 c-3-3.6-5.9-7.3-8.3-11.3c0.9-2.2,1.9-4.2,3.5-5.9C66.7,192.4,67.4,191.7,68,191z"/>
	</g>
	<g id="Eyes">
		<g id="Left">
			<path fill="#FFFFFF" d="M125.7,112.4l0.7,0.2c2.2,27.2,0.3,54,3.7,81.1c-0.4,0.6-0.8,1.2-1.1,1.8c-2.5,0.9-4.6,1.3-7.3,1.2 l-0.8-0.6c-2.5-12.3-5.6-23.6-6.4-36.3c-0.7-12.9-1.2-26-0.3-38.9c0.2-2.8,0.5-5.9,2.8-7.8C119.6,111.2,122.8,112.2,125.7,112.4z"/>
			<path d="M129,195.5l-0.7,1.1c-1.8,0.8-3.3,1.1-5.3,1l-1.3-0.9C124.4,196.8,126.5,196.4,129,195.5z"/>
			<path id="Pupill" d="M123,121.4c1,1.5,2.1,2.7,2.2,4.6c1,7.6,0.2,15.4,0.6,23c0.6,10,0.5,20,1.2,30c0.2,3,0.4,5.8-0.8,8.6 c-1.5,0-2.6-0.5-3.2-1.6c-1.9-2.6-2.4-5.9-3-9c-3.8-17.2-5.2-35.2-4-52.8c0.7,0.5,1.3,1,2,1.5c0,1.3-0.1,4.4,2.1,3.6 c2.4-0.3,3-2.3,4-4.2c-0.9-0.6-1.7-1.3-2.6-1.9C121.9,122.6,122.5,122,123,121.4z"/>
			<path d="M126.4,112.5c0.6,0.2,1.2,0.5,1.8,0.8c0.3,23.3,1.7,46.5,2.4,69.7c0.1,3.4,0.5,7.3-0.4,10.6 C126.7,166.5,128.6,139.7,126.4,112.5z"/>
			<path d="M124.9,109.1c0.3,1.1,0.6,2.2,0.8,3.3c-3-0.1-6.1-1.1-8.8,0.6c-2.3,1.9-2.5,5.1-2.8,7.8c-0.9,12.9-0.5,26,0.3,38.9 c0.8,12.6,3.9,23.9,6.4,36.3l-1.3-1c-3.9-10.3-5.1-22-6.6-32.8c-1.8-15.4-2.6-30.6,0.4-45.9c0.6-2.2,1.5-5.2,3.4-6.6 C119.2,108.4,122.4,108.3,124.9,109.1z"/>
			<path d="M124.5,84.5c2.8,1.4,3.1,4.2,4.1,6.8c-2.4-0.9-5-2.2-7.6-2.2c-2.8,0-5.6,1.7-8.2,2.7c0.7-1.9,1.2-4,2.3-5.7 C117.6,83.7,121.4,82.8,124.5,84.5z"/>
		</g>
		<g id="Right">
			<path fill="#FFFFFF" d="M166.2,112.8c1.4,2,1.8,4.8,2.2,7.2c0.6,6.2,0.6,12.5,0.4,18.8c-0.4,11.4-0.3,22.8-1.4,34.2 c-0.6,7.2-1.8,14.3-2.7,21.4c-0.6,0.5-1.1,1-1.7,1.4c-2.6,0.4-5.1,0.5-7.7,0.6l-0.6-1.7c1.1-22.2-0.6-44.3,1.3-66.4 c0.5-0.1,1.1-0.1,1.7-0.2c-0.6,15.6-1.3,31.2-0.7,46.8c0.2,3,0,6.8,1.5,9.5c2.3,1.2,3.8-1.9,4.5-3.7c3.2-10.7,3.3-22.8,3.8-33.9 c0.3-7.6,0.8-15.4,0.4-23c-0.1-2.7-2.3-3.1-4.2-4.2c0.9,1.5,2.1,2.8,2.8,4.3c-2.4,2.6-3.7,2.7-6.9,1.4c0.5-0.9,1-1.8,1.5-2.6 c-0.6-0.6-1.1-1.2-1.7-1.8c-0.2,1.5-0.3,3-0.5,4.6c-0.6,0-1.1,0.1-1.7,0.1c0.6-4.1,0.9-9.5,3.6-12.9 C161.8,111.8,164.4,111.2,166.2,112.8z"/>
			<path d="M155.2,196.5c2.6-0.2,5.2-0.3,7.7-0.6C160.4,197.8,158.1,197.4,155.2,196.5z"/>
			<path id="Pupill_1_" d="M167,111.1c2.6,2.2,3.3,6.8,4,9.9c1.5,9.8,0.6,20.3,0.1,30.2c-0.5,9.5-1.8,18.9-2.9,28.3 c-0.8,4.9-1.5,10.4-3.5,15c0.9-7.1,2.1-14.3,2.7-21.4c1.1-11.4,1-22.8,1.4-34.2c0.2-6.3,0.2-12.6-0.4-18.8 c-0.4-2.3-0.8-5.2-2.2-7.2c-1.8-1.6-4.4-1-6.3,0c-2.7,3.4-2.9,8.8-3.6,12.9c0.6,0,1.1-0.1,1.7-0.1c0.2-1.5,0.3-3,0.5-4.6 c0.6,0.6,1.1,1.2,1.7,1.8c-0.5,0.9-1,1.8-1.5,2.6c3.2,1.3,4.5,1.2,6.9-1.4c-0.7-1.6-1.9-2.8-2.8-4.3c1.9,1.2,4.1,1.6,4.2,4.2 c0.5,7.6-0.1,15.4-0.4,23c-0.5,11-0.6,23.2-3.8,33.9c-0.6,1.8-2.1,4.9-4.5,3.7c-1.4-2.8-1.2-6.5-1.5-9.5 c-0.6-15.6,0.1-31.2,0.7-46.8c-0.6,0.1-1.1,0.1-1.7,0.2c-1.9,22.1-0.3,44.2-1.3,66.4c-0.9-2.5-1.1-5.1-1-7.8 c0-10.3,0.3-20.7,0.2-31c-0.1-12.8-0.2-25.3,1.5-38c0.4-2.3,0.9-4.7,2.1-6.6C159.6,109.3,164.6,109.3,167,111.1z"/>
			<path d="M166.3,86.7c2.9,2.2,2.6,5.3,3.3,8.6c-2.3-2.5-3.9-4.8-7.6-4.7c-3.5-0.2-5.2,1.3-7.3,3.7c-0.4-2.2-0.9-4.3-1.4-6.4 C157,84.3,162.1,83.4,166.3,86.7z"/>
		</g>
	</g>
</svg>
