<?xml version="1.0" encoding="UTF-8" standalone="no"?>
<!DOCTYPE svg PUBLIC "-//W3C//DTD SVG 1.1//EN" "http://www.w3.org/Graphics/SVG/1.1/DTD/svg11.dtd">
<svg xmlns="http://www.w3.org/2000/svg" version="1.1" viewBox="0 0 266 64">
<path fill="#ffffff" d="M 25.61,37.68 Q 24.25,39.34 24.50,41.25 Q 25.73,50.64 26.52,60.07 A 0.55,0.53 83.8 0 1 26.07,60.65 L 10.07,63.12 A 0.53,0.51 80.4 0 1 9.48,62.69 L 0.52,6.69 A 0.58,0.56 77.3 0 1 0.91,6.05 L 20.16,0.66 A 0.79,0.78 78.5 0 1 21.14,1.32 L 24.17,24.95 Q 24.35,26.32 25.18,25.20 L 43.20,0.90 A 0.56,0.56 33.4 0 1 43.94,0.75 L 54.32,7.04 A 0.67,0.65 -55.5 0 1 54.49,8.02 L 39.63,26.76 A 0.67,0.64 -44.7 0 0 39.61,27.57 L 48.61,39.05 Q 48.94,39.48 48.91,38.94 L 47.89,19.82 A 0.83,0.81 86.0 0 1 48.62,18.95 L 58.43,18.09 A 0.67,0.48 75.9 0 1 58.99,18.56 L 59.24,19.33 A 0.50,0.41 -25.8 0 0 59.93,19.49 Q 64.79,16.68 70.51,17.06 Q 73.84,17.28 76.44,19.32 Q 77.78,20.36 77.17,18.78 Q 76.49,17.04 78.21,17.14 Q 79.54,17.21 79.79,17.19 Q 85.48,16.79 91.19,16.58 A 0.49,0.49 -1.7 0 1 91.70,17.06 Q 91.94,26.55 92.92,35.98 Q 93.33,39.97 94.80,41.59 Q 97.33,44.38 101.76,42.27 A 2.59,2.56 -12.4 0 0 103.23,40.00 L 103.56,17.07 A 0.53,0.49 -88.9 0 1 104.06,16.55 L 115.82,16.90 A 0.55,0.51 2.2 0 1 116.35,17.43 L 116.13,22.74 Q 116.10,23.44 116.64,23.03 Q 125.30,16.35 134.01,20.39 A 0.52,0.50 -73.7 0 0 134.72,19.99 L 136.71,7.30 A 0.54,0.52 8.4 0 1 137.31,6.87 L 149.02,8.36 A 0.60,0.60 6.3 0 1 149.55,9.02 L 147.70,25.90 Q 147.63,26.54 148.19,26.24 Q 155.22,22.61 163.81,25.34 A 0.36,0.35 6.8 0 0 164.28,24.98 L 163.43,11.57 A 0.74,0.72 87.3 0 1 164.13,10.78 L 176.30,10.41 A 0.45,0.43 -2.7 0 1 176.76,10.81 L 177.50,22.76 Q 177.56,23.67 177.97,22.87 Q 182.91,13.41 193.54,11.22 Q 198.74,10.15 203.99,10.82 Q 212.68,11.92 217.18,19.25 Q 217.45,19.70 217.42,19.19 L 216.54,5.14 A 0.81,0.81 86.6 0 1 217.31,4.27 L 228.11,3.70 A 0.85,0.82 -1.7 0 1 229.00,4.51 Q 229.22,20.91 229.74,37.07 Q 229.74,37.14 229.62,37.91 Q 229.52,38.58 230.43,38.59 A 1.73,1.13 -16.7 0 1 231.34,38.86 Q 235.65,42.00 240.70,43.56 Q 242.47,44.11 243.82,43.67 Q 246.88,42.67 244.19,39.56 Q 242.88,38.06 239.76,36.94 Q 235.62,35.45 235.04,35.07 Q 231.06,32.47 231.00,26.75 Q 230.96,22.74 232.76,20.20 Q 239.40,10.85 251.31,14.44 Q 259.96,17.05 265.24,19.71 A 0.50,0.48 -62.7 0 1 265.44,20.38 L 260.49,29.50 A 0.69,0.68 -59.7 0 1 259.53,29.76 Q 255.33,27.16 250.23,26.80 Q 248.47,26.68 247.57,27.63 Q 246.37,28.89 247.65,30.35 Q 248.29,31.08 249.72,31.63 Q 255.56,33.85 257.69,35.06 Q 259.70,36.21 260.64,38.43 Q 261.30,39.98 261.74,42.62 Q 262.67,48.12 259.44,52.19 Q 255.82,56.75 248.99,57.67 Q 236.48,59.35 227.60,50.84 A 0.89,0.68 -63.9 0 1 227.44,50.04 Q 227.55,49.62 227.44,49.21 A 0.67,0.49 -9.2 0 0 226.76,48.86 L 220.20,49.57 A 0.58,0.50 82.7 0 1 219.64,49.07 Q 219.39,47.36 218.01,48.42 Q 217.12,49.11 217.06,49.15 Q 201.79,59.21 185.74,49.97 Q 182.06,47.85 179.68,44.30 Q 178.92,43.17 179.00,44.54 L 179.77,56.81 A 0.75,0.72 -5.5 0 1 179.12,57.57 Q 172.55,58.44 167.34,59.04 Q 165.79,59.22 166.16,56.96 Q 166.38,55.61 165.34,56.50 Q 162.07,59.32 157.63,60.47 Q 151.67,62.01 147.43,58.30 Q 146.20,57.22 144.92,55.83 Q 143.61,54.41 142.94,52.89 A 1.93,1.92 -12.1 0 0 141.16,51.74 Q 136.18,51.77 132.91,50.61 A 1.04,1.01 37.7 0 0 132.03,50.71 Q 127.28,53.84 122.25,51.75 Q 118.76,50.30 115.99,46.72 Q 115.62,46.24 115.59,46.80 L 115.28,52.99 A 0.54,0.48 -88.1 0 1 114.80,53.50 L 104.07,53.45 A 0.74,0.57 -3.0 0 1 103.37,52.97 L 103.17,51.81 A 0.31,0.26 70.8 0 0 102.77,51.57 Q 99.98,53.25 96.94,54.43 Q 91.74,56.43 87.11,53.37 Q 80.57,49.05 79.27,41.31 Q 79.18,40.78 79.08,41.30 L 78.13,46.56 A 0.60,0.49 -81.0 0 1 77.57,47.06 L 69.29,46.10 A 0.76,0.69 -83.0 0 1 68.69,45.25 Q 69.53,38.61 69.71,32.28 Q 69.80,29.03 68.37,27.66 Q 65.90,25.31 61.13,27.57 A 1.19,1.16 -14.3 0 0 60.45,28.69 L 61.28,46.56 A 0.67,0.58 82.7 0 1 60.83,47.23 L 56.62,48.21 A 0.72,0.67 -25.1 0 0 56.18,49.30 L 59.66,53.63 A 0.61,0.60 -36.1 0 1 59.51,54.51 L 46.38,63.25 A 0.61,0.60 -35.5 0 1 45.57,63.12 L 26.23,37.71 A 0.40,0.39 46.4 0 0 25.61,37.68 ZM 202.57,20.99 A 4.64,4.58 64.4 0 0 199.81,20.00 Q 190.64,19.81 191.29,28.81 A 0.83,0.82 -5.3 0 0 192.21,29.57 L 205.77,28.00 A 0.53,0.52 -6.5 0 0 206.24,27.42 Q 205.83,23.59 202.57,20.99 ZM 124.00,41.34 Q 127.74,43.05 131.93,41.15 A 1.18,1.04 -11.3 0 0 132.60,40.27 L 133.79,28.43 A 0.67,0.63 13.4 0 0 133.35,27.76 Q 131.20,26.98 128.97,27.03 Q 126.47,27.08 124.54,28.65 Q 119.83,32.49 122.20,39.36 A 3.42,3.38 -87.6 0 0 124.00,41.34 ZM 163.78,34.23 Q 153.19,32.08 152.19,40.16 Q 151.56,45.26 154.21,48.34 Q 157.48,52.15 164.35,49.34 A 1.49,1.44 -13.0 0 0 165.28,47.91 L 164.53,35.07 A 0.95,0.90 4.7 0 0 163.78,34.23 ZM 195.44,41.06 Q 198.27,42.79 201.24,42.92 Q 209.06,43.26 215.64,39.34 Q 217.50,38.23 217.67,37.98 Q 218.28,37.06 217.78,35.15 A 0.99,0.98 -10.2 0 0 216.72,34.42 L 193.19,36.89 A 0.47,0.46 -8.3 0 0 192.77,37.44 Q 193.22,39.71 195.44,41.06 Z"/>
</svg>
